<?xml version="1.0" encoding="utf-8"?>
<!-- Generator: Adobe Illustrator 27.5.0, SVG Export Plug-In . SVG Version: 6.00 Build 0)  -->
<svg version="1.1" xmlns="http://www.w3.org/2000/svg" xmlns:xlink="http://www.w3.org/1999/xlink" x="0px" y="0px"
	 viewBox="0 0 500 500" style="enable-background:new 0 0 500 500;" xml:space="preserve">
<g id="BACKGROUND">
	<rect style="fill:#047A6C;" width="500" height="500"/>
</g>
<g id="OBJECTS">
	<g>
		<rect style="fill:#016660;" width="500" height="500"/>
		<rect style="fill:#037267;" width="500" height="500"/>
		<rect style="fill:#047A6C;" width="500" height="500"/>
		<path style="fill:#068E7B;" d="M500,74.98v238.78c-44.7,94.07-140.6,159.11-251.68,159.11c-108.37,0-202.29-61.9-248.32-152.26
			V68.13C12.81,42.97,29.34,20.02,48.86,0h398.91C469.05,21.82,486.77,47.13,500,74.98z"/>
		<path style="fill:#068E7B;" d="M0,419.04v2.28c3.39,3.71,6.88,7.35,10.45,10.92c28.54,28.54,61.3,51.33,96.89,67.76h3.78
			C68.66,480.87,30.88,453.14,0,419.04z M385.52,500h3.78c35.58-16.44,68.35-39.22,96.88-67.76c4.77-4.77,9.38-9.65,13.82-14.65
			v-2.33C468.53,451.09,429.54,480.16,385.52,500z"/>
		<path style="fill:#068E7B;" d="M299.07,500h8.2c60.65-11.57,116.44-40.97,161.07-85.6c11.6-11.6,22.17-23.95,31.66-36.95v-2.66
			C453.12,440.01,381.54,486.35,299.07,500z M5.28,0C3.49,2.23,1.72,4.49,0,6.76v2.6C2.36,6.19,4.79,3.07,7.27,0H5.28z M0,379.38
			v2.6c8.61,11.34,18.05,22.18,28.29,32.42c44.62,44.63,100.41,74.03,161.08,85.6h8.2C117.05,486.68,46.91,442.18,0,379.38z
			 M491.35,0h-1.99c3.68,4.54,7.23,9.2,10.64,13.95v-2.66C497.21,7.47,494.33,3.7,491.35,0z"/>
		<path style="fill:#089B82;" d="M456.69,194.37c0,115.08-93.29,208.37-208.37,208.37S39.95,309.45,39.95,194.37
			c0-88.55,55.23-164.2,133.13-194.37h150.48C401.46,30.17,456.69,105.82,456.69,194.37z"/>
		<path style="fill:#089B82;" d="M354.67,0h-2.91c69.43,37.1,116.78,110.31,116.78,194.37c0,121.43-98.8,220.22-220.22,220.22
			c-121.43,0-220.22-98.79-220.22-220.22C28.1,110.31,75.45,37.1,144.87,0h-2.91C73.33,37.7,26.71,110.69,26.71,194.37
			c0,122.19,99.42,221.61,221.61,221.61s221.6-99.42,221.6-221.61C469.92,110.69,423.3,37.7,354.67,0z"/>
		<path style="fill:#089B82;" d="M389.3,0h-7.2c61.73,42.61,102.26,113.85,102.26,194.37c0,130.16-105.89,236.04-236.04,236.04
			c-130.16,0-236.06-105.88-236.06-236.04C12.26,113.85,52.79,42.62,114.52,0h-7.19C47.24,43.7,8.11,114.55,8.11,194.37
			c0,132.46,107.75,240.2,240.21,240.2c132.45,0,240.19-107.74,240.19-240.2C488.51,114.55,449.38,43.7,389.3,0z"/>
		<circle style="fill:#A7FFCF;" cx="248.316" cy="194.372" r="145.926"/>
	</g>
	<g>
		<path style="fill:#26263A;" d="M243.384,231.909c3.02-1.007,27.113-5.643,39.827-6.12c5.374-0.202,19.325-1.893,19.325-1.893
			c-13.587-1.349-27.172-0.627-40.653,0.388c0-1.632-0.004-3.155,0.001-4.678c0.011-3.728,0.135-4.106,3.699-5.332
			c5.73-1.97,11.533-3.727,17.294-5.608c1.893-0.618,3.752-1.342,5.626-2.017c-0.068-0.221-0.136-0.442-0.203-0.664
			c-4.777,1.137-9.554,2.273-14.331,3.41c0.476-0.936,1.124-1.428,1.814-1.853c14.125-8.713,24.822-15.307,38.953-24.01
			c0.972-0.598,5.528-3.204,4.593-5.068c-18.494,10.509-36.918,20.978-55.342,31.447c3.489-7.718,5.861-21.397,5.861-21.397
			c-4.178,6.412-2.997,11.888-7.101,18.187c-2.72-1.816-1.626-5.835-5.116-6.889c0.603,2.534,1.148,5.147,2.46,7.291
			c1.383,2.261,0.822,5.119-1.746,6.47c-1.788,0.94-3.871,1.355-5.855,1.879c-11.167,2.95-20.968,8.586-30.308,15.191
			c-4.698,3.323-9.53,6.457-14.303,9.675c-0.39-0.338-0.345-0.299-0.736-0.637c0.609-1.286,1.113-2.635,1.843-3.847
			c6.452-10.715,12.825-21.481,19.497-32.058c1.985-3.147,5.051-5.593,7.254-8.627c3.079-4.238,6.626-6.34,12.158-5.401
			c3.675,0.624,7.578,0.005,11.156-1.66c-4.678-0.804-9.462,1.53-14.381-0.609c9.348-7.969,16.45-17.739,24.195-27.05
			c0.289-0.347-0.195-0.801-0.52-0.487c-6.717,6.482-17.685,16.97-24.527,23.002c1.527-3.676,3.72-10.632,3.485-14.389
			c0,0-3.604,9.773-5.577,14.402c-1.443,3.385-4.119,4.92-7.673,6.971c0.542-2.705,0.957-4.774,1.372-6.845
			c-0.313,0.037-0.571-3.839-1.45-3.736c0.336-5.538,0.421-6.958,0.793-13.095c-1.172,1.164-3.651,14.278-4.089,20.16
			c-0.237,3.189-0.228,6.231-2.337,9.099c-6.782,9.224-13.296,18.645-19.887,28.009c-7.029,9.987-12.692,20.635-15.917,32.503
			c-1.042,3.833-1.948,7.841-3.809,11.287c-5.905,10.934-12.25,21.615-16.893,33.209c-1.629,4.067-4.176,7.767-6.303,11.634
			c-0.4-0.005-0.475-0.006-0.874-0.012c-0.452-0.908-1.222-1.799-1.27-2.727c-0.19-3.673-0.376-7.373-0.144-11.037
			c0.724-11.404,2.185-22.762,1.188-34.244c-0.542-6.242-0.361-12.437,3.653-17.883c1.122-1.522,1.539-3.571,2.245-5.391
			c1.567-4.041,2.118-9.021,4.862-11.954c6.927-7.402,15.052-13.613,25.13-16.374c2.834-0.776,3.785-2.529,4.455-5.131
			c-3.402,0.858-6.568,1.656-10.347,2.609c-0.111-3.639-0.889-7.052-0.159-10.106c1.275-5.334,3.49-10.443,5.282-15.656
			c0.872-2.536,1.775-5.069,2.452-7.659c0.21-0.805-0.277-1.792-0.43-2.619c-2.367,5.419-4.61,10.619-6.907,15.795
			c-2.287,5.154-4.506,10.347-3.833,16.158c0.416,3.597-0.328,6.315-4.006,7.773c-1.258,0.499-2.295,1.532-3.481,2.239
			c-2.724,1.624-5.478,3.198-8.409,4.903c0-0.803-0.056-1.267,0.008-1.713c0.788-5.456,1.534-10.92,2.445-16.356
			c0.178-1.065,0.77-2.324,1.586-2.966c1.99-1.566,4.223-2.822,6.321-4.179c1.144,0.912,2.457,1.959,3.771,3.006
			c0.144-0.144,0.288-0.287,0.432-0.431c-0.195-0.464-0.285-1.021-0.601-1.378c-2.49-2.817-1.956-5.571-0.037-8.339
			c0.273-0.393,0.51-0.809,0.733-1.233c1.175-2.236,2.341-4.478,3.51-6.717l-0.637-0.569c-0.631,0.487-1.455,0.85-1.857,1.482
			c-1.438,2.266-2.639,4.684-4.106,6.929c-1.546,2.367-3.085,4.806-5.046,6.803c-0.903,0.92-3.313,1.646-4.154,1.099
			c-2.411-1.567-4.385-3.813-6.499-5.826c-1.224-1.166-1.313-2.235-0.167-3.742c3.909-5.136,7.641-10.407,11.404-15.653
			c0.694-0.967,1.215-2.058,1.816-3.091l-0.597-0.366c-4.761,6.247-9.521,12.494-14.282,18.742
			c-0.412-0.562-0.419-0.865-0.321-1.128c2.276-6.108,4.312-12.322,6.91-18.291c3.528-8.105,7.367-16.197,13.418-22.718
			c4.573-4.928,8.432-10.261,11.195-16.234c3.21-6.938,5.625-14.244,8.351-21.404c0.164-0.432,0.021-0.981,0.021-1.476
			c-1.122,0.462-1.996,1.116-2.376,1.986c-1.537,3.514-3.014,7.059-4.341,10.657c-2.209,5.99-5.195,11.526-9.249,17.015
			c-2.488-5.112-4.769-9.885-7.148-14.608c-0.447-0.888-1.288-1.578-1.947-2.36l-0.737,0.449c0.439,1.275,0.775,2.597,1.335,3.816
			c1.987,4.325,3.986,8.647,6.122,12.898c0.683,1.359,0.542,2.109-0.651,3.045c-4.653,3.649-8.384,8.079-11.159,13.337
			c-2.043,3.872-4.271,7.646-6.428,11.457c-0.264,0.465-0.601,0.889-0.904,1.332c-0.219-0.081-0.439-0.163-0.658-0.245
			c1.143-4.665,2.249-9.339,3.438-13.992c2.251-8.808,4.551-17.605,6.809-26.326c-1.939-0.937-2.481-0.209-2.841,1.156
			c-1.507,5.716-3.021,11.432-4.65,17.114c-0.899,3.136-2.032,6.205-3.271,9.945c-1.403-2.288-2.442-3.888-3.388-5.541
			c-3.698-6.456-7.339-12.946-11.077-19.378c-0.578-0.994-1.557-1.756-2.35-2.625l-0.687,0.526c0.295,0.654,0.561,1.324,0.89,1.96
			c4.022,7.764,7.952,15.578,12.126,23.261c2.014,3.708,2.757,7.307,1.546,11.458c-0.718,2.46-1.152,5.201-0.852,7.713
			c0.417,3.497-0.381,6.495-1.998,9.631c-1.951-2.383-2.251-5.792-5.623-7.778c0.512,1.422,0.748,2.289,1.128,3.088
			c0.826,1.732,1.744,3.419,2.592,5.14c1.686,3.423,0.252,5.665-3.548,5.531c-2.281-0.081-4.561-0.223-6.992-0.345
			c-0.133-0.432-0.356-1.001-0.482-1.589c-2.545-11.938-5.446-23.816-7.505-35.838c-1.772-10.348-2.526-20.869-3.846-31.299
			c-0.499-3.943-0.522-7.739,0.893-11.55c0.718-1.933,0.817-4.095,1.195-6.154c-3.267,1.286-2.158,4.57-3.748,6.693
			c-0.219-0.816-0.463-1.539-0.605-2.282c-0.955-4.976-1.903-9.953-2.818-14.936c-0.253-1.376-0.644-2.401-2.451-1.631
			c0.033,0.386,0.039,0.758,0.1,1.12c1.133,6.74,2.612,13.444,3.322,20.228c0.845,8.071,0.922,16.219,1.531,24.319
			c0.633,8.422,1.328,16.847,2.314,25.233c1.425,12.126,3.19,24.205,6.457,36.013c1.472,5.32,3.226,10.618,4.045,16.048
			c1.213,8.039,2.128,16.171,2.417,24.29c0.503,14.095,0.417,28.211,0.58,42.318c0.005,0.407-0.023,0.813-0.083,1.216
			c-0.57,3.819-1.16,7.635-1.752,11.502c-2.423-0.745-3.542-1.862-3.628-4.085c-0.095-2.446-0.632-4.872-0.843-7.318
			c-0.272-3.153-0.91-6.101-2.449-8.98c-2.929-5.48-5.536-11.137-8.117-16.793c-0.376-0.823-0.179-2.224,0.288-3.056
			c1.503-2.672,3.321-5.166,4.896-7.8c1.351-2.258,1.417-3.678,0.676-4.938c-2.729,3.963-5.52,8.017-8.642,12.552
			c-3.649-4.212-7.028-7.697-9.91-11.553c-3.119-4.174-5.782-8.69-8.61-13.079c-0.21-0.327-0.321-0.905-0.243-1.285
			c0.801-3.907,1.702-7.794,2.479-11.706c0.863-4.347,2.159-8.698,2.294-13.078c0.155-5.017-0.74-10.07-1.238-15.101
			c-0.055-0.556-0.502-1.073-0.767-1.608l-0.794,0.203c0.309,4.178,0.838,8.354,0.865,12.534c0.025,4.021-0.442,8.045-0.706,12.068
			c-0.343,0.085-0.324,0.08-0.667,0.165l-4.849-8.003c0.834,3.81,2.917,7.292,3.193,10.911c0.278,3.642-1.279,7.424-2.013,11.143
			c-0.42,0.061-0.412,0.06-0.831,0.121c-2.764-5.447-6.466-10.632-8.07-16.401c-2.4-8.632-5.773-16.637-10.394-24.226
			c-0.736-1.208-1.41-2.667-1.465-4.036c-0.149-3.697-0.326-7.462,0.203-11.1c1.201-8.261,1.658-16.611,1.046-24.937
			c-0.456-6.196-0.872-12.395-1.307-18.598c-1.478,0.346-1.491,0.534-1.385,3.244c0.29,7.446,0.756,14.896,0.691,22.34
			c-0.043,4.912-0.871,9.818-1.355,14.726c-0.365,0.014-0.254,0.01-0.618,0.025l-0.373-2.119c-0.153,0.009-0.307,0.018-0.46,0.027
			c0,11.294,0,22.588,0,34.138c-2.6-1.982-3.996-4.377-5.111-7.162c-2.787-6.962-1.544-14.456-3.142-21.558
			c-0.247-1.097-0.193-2.288-0.122-3.425c0.338-5.444,0.753-10.883,1.079-16.328c0.057-0.956-0.18-1.929-0.282-2.894l-0.695,0.032
			L78.49,155.71c-1.62-1.804-0.723-4.443-3.34-6.148c0.212,1.526,0.296,2.502,0.489,3.457c0.594,2.933,1.383,5.836,1.806,8.793
			c0.408,2.855,1.316,6.037,0.495,8.59c-2.093,6.506-5.028,12.741-7.819,19.554c-0.672-0.824-0.87-1.022-1.016-1.252
			c-3.621-5.705-7.277-11.387-10.82-17.139c-0.799-1.297-1.465-1.903-2.925-0.643c0.346,0.7,0.667,1.466,1.085,2.176
			c3.501,5.944,7.012,11.883,10.535,17.814c5.061,8.518,7.827,17.738,8.417,27.789c-0.885-0.653-1.784-1.228-2.584-1.919
			c-5.13-4.437-10.706-8.167-16.579-11.6c-6.735-3.937-12.06-9.768-15.649-16.588c-4.67-8.875-8.391-18.25-12.493-27.422
			c-1.227-2.743-2.362-5.527-3.538-8.292l-0.737,0.185c0.074,0.847-0.019,1.753,0.253,2.531c0.709,2.026,1.593,3.99,2.379,5.99
			c3.733,9.486,7.453,18.977,11.191,28.461c0.223,0.567,0.506,1.109,0.846,1.615c4.693,6.986,9.778,13.577,16.809,18.481
			c4.528,3.158,8.796,6.689,13.185,10.047c3.416,2.614,6.927,5.114,10.225,7.869c1.707,1.426,3.043,3.298,4.546,4.968
			c-0.124,0.338-0.149,0.408-0.273,0.745c-3.254,0.488-6.492,1.165-9.764,1.425c-3.359,0.267-6.75,0.152-10.127,0.175
			c-3.206,0.021-6.412,0.004-9.618,0.005c-0.009,0.291-0.005,0.16-0.014,0.45c4.304,0.264,8.607,0.529,13.658,0.839
			c-2.231,2.189-3.977,3.903-5.726,5.619c0.249,0.277,0.141,0.157,0.39,0.434c1.662-1.376,3.282-2.807,5.003-4.104
			c0.942-0.71,2.004-1.554,3.102-1.715c4.321-0.631,8.674-1.06,13.026-1.441c0.664-0.058,1.694,0.336,2.029,0.858
			c2.442,3.807,4.75,7.7,7.096,11.559c-5.515,2.088-11.109,3.44-17.354,1.988c-6.395-1.487-13.019-1.988-19.534-2.971
			c-0.163-0.025-0.337-0.066-0.51-0.121c-0.488-0.426-0.961-0.84-1.415-1.236c-0.067-0.059-0.139-0.081-0.209-0.086
			c-0.842-1.177-1.6-2.421-2.349-3.662c-2.014-3.341-3.931-6.743-6.027-10.03c-0.523-0.821-1.58-1.301-2.391-1.938
			c-0.06,0.122-0.12,0.244-0.179,0.365c3.057,5.487,6.114,10.975,9.364,16.808c-2.347,0.255-3.956,0.364-5.537,0.637
			c-0.555,0.096-1.041,0.595-1.558,0.91c0.564,0.313,1.126,0.89,1.691,0.891c1.987,0.006,3.973-0.24,5.962-0.293
			c1.215-0.032,2.419,0.003,3.614,0.085c7.128,7.939,14.03,16.038,22.608,22.652c-4.808,2.378-9.701,0.28-14.334,1.313
			c3.654,1.489,7.583,1.915,11.224,1.112c5.48-1.209,9.126,0.716,12.408,4.799c2.35,2.922,5.531,5.215,7.668,8.261
			c7.182,10.237,14.075,20.678,21.044,31.065c0.789,1.176,1.358,2.498,2.029,3.752c-0.373,0.357-0.33,0.316-0.703,0.672
			c-4.924-2.98-9.904-5.874-14.759-8.963c-9.652-6.14-19.718-11.289-31.016-13.688c-2.007-0.426-4.108-0.738-5.94-1.59
			c-2.632-1.223-3.332-4.051-2.061-6.377c1.205-2.206,1.622-4.842,2.1-7.403c-3.434,1.224-2.144,5.185-4.773,7.132
			c-4.408-6.09-3.497-11.618-7.984-17.817c0,0,3.039,13.546,6.902,21.084c-18.915-9.554-37.829-19.108-56.816-28.699
			c-0.842,1.907,3.836,4.286,4.836,4.836c14.541,8,25.547,14.062,40.082,22.073c0.71,0.391,1.382,0.851,1.903,1.762
			c-4.827-0.901-9.654-1.802-14.481-2.703c-0.057,0.224-0.114,0.449-0.171,0.673c1.905,0.583,3.797,1.214,5.718,1.739
			c5.846,1.597,11.729,3.067,17.549,4.754c3.62,1.049,3.761,1.421,3.955,5.144c0.079,1.521,0.15,3.042,0.23,4.672
			c-13.514-0.353-27.118-0.409-40.623,1.604c0,0,14.017,1.006,19.394,0.944c13.475-0.155,26.869,0.773,39.981,4.098
			c2.932,0.743,5.811,1.96,8.488,3.384c5.49,2.921,10.766,6.243,16.26,9.155c1.702,0.902,3.877,0.862,5.739,1.524
			c3.301,1.174,6.574,2.455,9.756,3.916c0.848,0.389,1.565,1.499,1.929,2.439c2.079,5.363,4.005,10.786,6.053,16.162
			c0.457,1.2,1.191,2.294,1.932,3.69c-3.363-1.365-6.548-2.54-9.627-3.949c-1.911-0.875-3.983-1.79-5.401-3.252
			c-1.713-1.766-2.855-4.103-4.164-6.242c-1.281-2.095-2.461-4.253-3.685-6.383c-0.319,0.17,2.786,8.992,4.784,13.52
			c-3.109-0.985-5.924-2.331-8.339-4.391c-3.506-2.99-15.65-12.111-15.871-11.881c1.671,1.738,3.306,3.514,5.024,5.204
			c1.804,1.773,3.753,3.402,5.527,5.203c4.608,4.679,9.945,7.936,16.265,10.016c6.243,2.054,12.329,4.75,18.166,7.777
			c1.98,1.026,3.261,3.78,4.396,5.984c1.78,3.458,4.744,9.372,7.312,14.482c3.196,6.36,4.924,13.356,5.057,20.472l0.002,0.11
			c0.262,13.962-1.521,27.749-3.206,41.556c-1.535,12.582-2.905,25.184-4.347,37.777h29.073c-0.174-1.522-0.391-3.041-0.516-4.567
			c-1.179-14.319-2.379-28.637-3.492-42.962c-0.434-5.585-0.909-11.185-0.928-16.779c-0.004-1.283-0.001-2.565,0.008-3.848
			c0.094-13.059,5.647-25.481,15.268-34.312c5.908-5.423,12.212-11.267,16.148-15.113c2.801-2.737,6.405-4.711,9.803-6.767
			c10.522-6.366,19.202-14.739,26.87-24.245c7.189-8.912,14.455-17.767,21.457-26.824c2.177-2.817,5.105-3.644,8.105-4.75
			c5.534-2.039,17.46-8.03,18.257-9.477c-5.798,2.046-7.14,2.519-12.372,4.365c-0.143-0.873-3.94-0.055-3.991-0.366
			c-1.877,0.969-3.752,1.936-6.204,3.202c0.994-3.981,1.734-6.976,4.591-9.295c3.907-3.171,12.312-9.324,12.312-9.324
			c-3.677,0.808-9.761,4.829-12.875,7.309c3.917-8.236,10.981-21.663,15.366-29.904c0.212-0.399-0.356-0.741-0.611-0.367
			c-6.821,10.006-14.26,19.521-19.349,30.7c-3.411-4.14-2.482-9.382-4.542-13.658c-0.618,3.898-0.139,7.82,1.472,11.182
			c2.425,5.06,1.38,9.049-1.848,13.175c-2.31,2.953-3.819,6.573-6.299,9.347c-8.333,9.325-16.931,18.413-25.458,27.564
			c-0.965,1.036-2.123,1.891-3.192,2.83c-0.433-0.282-0.382-0.249-0.815-0.532c1.781-5.474,3.465-10.981,5.367-16.412
			c3.781-10.797,6.504-21.77,6.267-33.317c-0.042-2.052-0.217-4.169,0.196-6.146c0.592-2.841,3.186-4.167,5.74-3.459
			c2.422,0.672,5.084,0.477,7.686,0.36c-1.974-3.065-5.537-0.908-8.031-3.024c4.927-5.679,10.517-6.05,15.532-11.831
			c0,0-11.888,4.54-18.348,10.017c0,0,7.749-23.601,6.34-31.82l-2.722,10.468c-0.22,0.847-0.531,1.667-0.926,2.447l-4.27,8.416
			c-0.219,0.78-0.514,1.539-1.283,2.254c-0.221-4.905-1.677-10.755-1.75-8.765c-0.223,6.056-0.316,12.119-0.634,18.17
			c-0.198,3.763-0.527,3.986-4.108,5.022c-1.463,0.423-2.928,0.839-4.497,1.288c0,0-1.949,6.248-2.202,19.773
			c-0.056,3.024-0.586,6.104-1.363,9.035c-1.595,6.01-3.628,11.905-5.213,17.918c-0.491,1.863,0.043,3.971-0.178,5.936
			c-0.392,3.482-0.894,6.96-1.592,10.391c-0.186,0.915-1.104,1.865-1.936,2.433c-4.749,3.246-9.591,6.356-14.36,9.573
			c-1.064,0.718-1.962,1.682-3.153,2.722c0.563-3.586,0.983-6.955,1.653-10.273c0.417-2.061,0.837-4.286,1.937-6
			c1.33-2.071,3.345-3.715,5.13-5.476c1.748-1.725,3.58-3.365,5.376-5.042c-0.238-0.272-8.122,4.76-12.076,7.736
			c0.251-3.252,0.921-6.299,2.378-9.12c2.114-4.094,8.229-17.996,7.955-18.159c-1.312,2.023-2.669,4.019-3.923,6.077
			c-1.316,2.16-2.458,4.429-3.808,6.566c-3.507,5.553-5.464,11.491-6.049,18.118c-0.579,6.546-1.818,13.086-3.436,19.46
			c-0.549,2.161-2.939,4.036-4.826,5.643c-4.137,3.521-8.375,6.922-12.587,10.355c-0.049-8.073-0.171-16.146-0.209-24.219
			c-0.035-7.594-0.129-15.188,2.41-22.531c0.772-2.234,0.927-4.675,1.614-6.946c1.168-3.859,2.378-7.72,3.868-11.462
			c1.074-2.695,2.767-5.138,3.947-7.798c3.079-6.944,5.938-13.987,9.08-20.902c1.026-2.257,2.171-5.071,4.098-6.193
			c5.682-3.309,11.629-6.3,17.763-8.657c6.211-2.386,11.382-5.901,15.755-10.8c1.684-1.886,3.55-3.608,5.265-5.468
			c1.634-1.772,3.179-3.626,4.764-5.444c-0.232-0.219-11.915,9.485-15.27,12.644c-2.311,2.176-5.056,3.659-8.114,4.795
			c1.773-4.62,4.442-13.584,4.115-13.738c-1.119,2.188-2.191,4.4-3.368,6.555c-1.202,2.201-2.228,4.59-3.853,6.439
			c-1.345,1.529-3.369,2.546-5.235,3.513c-3.006,1.558-6.13,2.888-9.422,4.416c0.672-1.431,1.352-2.56,1.749-3.78
			c1.782-5.47,3.44-10.98,5.254-16.439c0.318-0.956,0.979-2.1,1.807-2.53c3.106-1.615,6.313-3.055,9.552-4.389
			c1.828-0.753,4.002-0.819,5.658-1.804c5.109-3.038,10.001-6.439,15.087-9.517c0.348-0.211,0.694-0.426,1.037-0.645
			C236.348,234.874,238.856,233.418,243.384,231.909z M72.378,190.704c0.984-2.14,1.871-4.324,2.835-6.473
			c0.985-2.198,2.012-4.376,3.112-6.76c0.746,3.163,1.373,6.126,2.152,9.048c0.987,3.702,2.783,6.893,5.833,9.387
			c1.363,1.114,2.344,2.697,3.497,4.067c-0.161,0.204-0.323,0.408-0.484,0.612c-0.664-0.237-1.356-0.416-1.988-0.721
			c-4.616-2.227-9.21-4.502-13.836-6.708C72.363,192.613,71.77,192.024,72.378,190.704z M90.424,227.697
			c-7.805-1.789-10.685-7.712-11.826-14.736c-0.896-5.518-2.594-10.699-5.006-15.697c-0.416-0.861-0.703-1.785-1.189-3.041
			c0.783,0.279,1.205,0.378,1.577,0.57c4.543,2.349,9.066,4.737,13.625,7.054c1.334,0.678,2.074,1.578,2.34,3.11
			C91.264,212.546,92.347,220.125,90.424,227.697z M77.211,311.159c-2.332-0.35-4.671-0.655-6.993-1.061
			c-3.655-0.639-4.998-2.543-4.609-6.917c4.059,2.589,7.938,5.063,11.817,7.537C77.354,310.865,77.282,311.012,77.211,311.159z
			 M75.285,303.551c11.035,3.371,20.406,9.677,29.317,16.796C94.887,314.647,84.1,310.838,75.285,303.551z M249.142,218.975
			c-8.448,7.71-19.035,12.042-28.46,18.211C229.234,229.64,238.285,222.882,249.142,218.975z M162.257,199.357
			c1.561-2.974,3.41-5.796,5.27-8.919c1.882,2.029,3.493,4.105,5.449,5.78c1.953,1.672,2.57,3.156,0.8,5.289
			c-0.512,0.617-0.775,1.511-0.958,2.322c-1.313,5.82-2.299,11.731-3.938,17.455c-1.496,5.226-3.682,10.254-5.782,15.962
			c-0.877-5.869-1.683-11.056-2.418-16.253c-0.397-2.807-0.41-5.695-1.064-8.435C158.451,207.678,160.101,203.465,162.257,199.357z
			 M151.542,185.343c3.449,0.444,6.281,0.809,9.636,1.241c-1.809,2.948-3.415,5.563-5.02,8.179
			c-0.242,0.025-0.483,0.051-0.724,0.076C154.192,191.811,152.951,188.782,151.542,185.343z M132.748,251.573
			c2.488,6.012,5.212,13.821,7.355,19.954c0.929,2.659,0.66,5.737,0.936,8.624c-0.18,0.089-0.36,0.178-0.54,0.267
			c-0.652-0.778-1.318-1.545-1.954-2.335c-2.604-3.233-5.315-6.39-7.738-9.754c-0.862-1.197-1.587-2.987-1.386-4.361
			c0.523-3.582,1.594-7.085,2.446-10.619C131.866,253.349,132.454,251.538,132.748,251.573z M104.512,211.308
			c5.549,9.881,11.426,19.591,17.547,29.13c2.329,3.63,5.682,6.604,8.494,9.792c-1.663,3.847-3.319,7.679-5.006,11.581
			c-1.053-1.882-1.782-4.081-3.23-5.592c-3.426-3.577-7.199-6.822-10.821-10.212c-4.079-3.816-8.691-7.232-12.015-11.622
			c-1.983-2.62-2.828-6.835-2.604-10.227c0.374-5.648-1.074-10.951-1.582-16.413c-0.063-0.674-0.128-1.347-0.223-2.35
			C99.377,205.932,102.342,207.443,104.512,211.308z M115.242,263.456c-8.512-6.644-15.694-14.61-22.311-23.124
			C102.603,245.84,109.199,254.362,115.242,263.456z M101.657,204.763c-2.068-0.439-3.931-0.782-5.759-1.257
			c-0.486-0.126-1.149-0.588-1.255-1.014c-1.771-7.118-2.453-14.372-2.561-21.723C96.884,188.128,100.266,196.001,101.657,204.763z
			 M57.668,249.412c5.205,0.608,10.255,2.09,15.308,3.52c0.561,0.159,1.122,0.304,1.683,0.44c0.065,3.813,2.512,10.415,4.178,13.929
			C73.07,262.699,64.465,255.318,57.668,249.412z M80.927,267.212c-1.969-4.054-5.444-12.162-6.147-13.81
			c4.224,1.016,8.442,1.355,12.685,0.481c0.365,3.323,0.566,5.147,1.027,9.343c-0.882-0.06-0.95,3.824-1.265,3.802
			c0.516,2.049,1.031,4.095,1.705,6.77C85.283,271.925,82.535,270.522,80.927,267.212z M137.992,348.867
			c-2.028-3.35-3.129-7.31-4.357-11.087c-3.803-11.695-9.98-22.054-17.49-31.684c-7.041-9.03-14.009-18.12-21.235-27.001
			c-2.247-2.761-2.386-5.8-2.779-8.974c-0.516-4.166-2.245-11.938-3.641-16.472c0.573-0.145,1.146-0.306,1.72-0.498
			c3.47-1.161,6.498-0.67,8.814,2.45c0.546,0.735,1.277,1.329,1.898,2.01c4.826,5.288,9.836,10.293,16.163,13.908
			c7.224,4.127,12.545,10.25,16.986,17.242c1.318,2.074,3.085,4.106,5.12,5.431c4.171,2.715,6.673,6.728,9.35,10.647
			c0.393,0.576,0.46,1.456,0.471,2.199c0.081,5.227,0.159,10.455,0.135,15.683c-0.018,3.761-0.441,7.534-0.253,11.279
			c0.402,7.975,1.371,15.928,1.591,23.904c0.112,4.039,0.191,8.078,0.255,12.118C146.708,362.845,142.257,355.915,137.992,348.867z
			 M219.351,325.81c3.338-10.758,4.591-22.129,9.68-32.371C228.261,304.951,224.254,315.512,219.351,325.81z M227.188,283.931
			c-1.597,4.541-3.123,8.882-4.649,13.223c-0.159-0.036-0.319-0.072-0.478-0.108c-0.19-2.35-0.426-4.698-0.559-7.051
			C221.292,286.289,222.84,284.548,227.188,283.931z M254.524,225.265c-2.299,0.519-4.621,0.938-6.933,1.402
			c-0.078-0.143-0.157-0.287-0.236-0.43c3.753-2.661,7.507-5.323,11.434-8.107C259.392,222.48,258.144,224.448,254.524,225.265z"/>
		<path style="fill:#26263A;" d="M447.915,285.41c1.974-0.658,17.723-3.689,26.034-4.001c3.513-0.132,12.632-1.237,12.632-1.237
			c-8.882-0.882-17.762-0.41-26.574,0.253c0-1.067-0.003-2.062,0-3.058c0.008-2.437,0.088-2.684,2.418-3.485
			c3.746-1.288,7.539-2.436,11.305-3.666c1.237-0.404,2.452-0.877,3.678-1.319c-0.044-0.144-0.089-0.289-0.133-0.434
			c-3.123,0.743-6.245,1.486-9.368,2.229c0.311-0.612,0.735-0.933,1.186-1.211c9.233-5.696,16.225-10.006,25.463-15.695
			c0.635-0.391,3.613-2.094,3.003-3.313c-12.089,6.869-24.133,13.713-36.176,20.556c2.28-5.045,3.831-13.987,3.831-13.987
			c-2.731,4.191-1.959,7.771-4.642,11.888c-1.778-1.187-1.063-3.814-3.344-4.503c0.394,1.656,0.751,3.364,1.608,4.766
			c0.904,1.478,0.538,3.346-1.141,4.229c-1.168,0.615-2.53,0.885-3.827,1.228c-7.299,1.928-13.706,5.612-19.812,9.93
			c-3.071,2.172-6.23,4.221-9.349,6.324c-0.255-0.221-0.226-0.195-0.481-0.417c0.398-0.84,0.727-1.722,1.204-2.515
			c4.217-7.004,8.383-14.042,12.745-20.956c1.298-2.057,3.301-3.656,4.742-5.639c2.012-2.771,4.331-4.144,7.948-3.53
			c2.402,0.408,4.954,0.004,7.292-1.085c-3.058-0.526-6.185,1-9.4-0.398c6.111-5.209,10.753-11.596,15.816-17.682
			c0.189-0.227-0.127-0.523-0.34-0.318c-4.391,4.237-11.56,11.093-16.033,15.036c0.998-2.403,2.431-6.95,2.278-9.406
			c0,0-2.356,6.388-3.646,9.414c-0.944,2.213-2.693,3.217-5.016,4.557c0.354-1.768,0.625-3.12,0.897-4.474
			c-0.205,0.024-0.373-2.509-0.947-2.442c0.219-3.62,0.275-4.548,0.518-8.56c-0.766,0.761-2.387,9.333-2.673,13.178
			c-0.155,2.084-0.149,4.073-1.527,5.948c-4.433,6.029-8.691,12.188-13,18.309c-4.595,6.528-8.296,13.489-10.405,21.246
			c-0.681,2.505-1.273,5.126-2.49,7.378c-3.86,7.148-8.008,14.13-11.043,21.708c-1.065,2.659-2.73,5.077-4.12,7.605
			c-0.261-0.003-0.31-0.004-0.572-0.008c-0.296-0.593-0.799-1.176-0.83-1.783c-0.124-2.401-0.246-4.82-0.094-7.214
			c0.473-7.455,1.428-14.879,0.777-22.385c-0.354-4.08-0.236-8.13,2.388-11.69c0.733-0.995,1.006-2.334,1.468-3.524
			c1.024-2.641,1.384-5.897,3.178-7.814c4.528-4.839,9.839-8.899,16.427-10.703c1.852-0.508,2.474-1.653,2.912-3.354
			c-2.224,0.561-4.294,1.083-6.764,1.706c-0.073-2.378-0.581-4.61-0.104-6.606c0.833-3.487,2.282-6.826,3.453-10.234
			c0.57-1.658,1.161-3.314,1.603-5.007c0.137-0.526-0.181-1.171-0.281-1.712c-1.547,3.543-3.014,6.942-4.515,10.325
			c-1.495,3.369-2.945,6.764-2.506,10.562c0.272,2.352-0.215,4.128-2.618,5.081c-0.822,0.326-1.5,1.001-2.276,1.464
			c-1.78,1.062-3.58,2.091-5.497,3.205c0-0.525-0.036-0.828,0.006-1.12c0.515-3.567,1.003-7.138,1.598-10.692
			c0.117-0.696,0.503-1.519,1.036-1.939c1.301-1.024,2.761-1.845,4.132-2.732c0.748,0.596,1.606,1.28,2.465,1.965
			c0.094-0.094,0.188-0.188,0.283-0.281c-0.127-0.304-0.186-0.668-0.393-0.901c-1.628-1.841-1.278-3.642-0.024-5.451
			c0.178-0.257,0.333-0.529,0.479-0.806c0.768-1.462,1.53-2.927,2.294-4.391l-0.416-0.372c-0.412,0.318-0.951,0.556-1.214,0.969
			c-0.94,1.481-1.725,3.062-2.684,4.529c-1.011,1.547-2.017,3.141-3.298,4.447c-0.591,0.602-2.165,1.076-2.716,0.719
			c-1.576-1.024-2.866-2.492-4.248-3.808c-0.8-0.762-0.858-1.461-0.109-2.446c2.555-3.358,4.995-6.803,7.455-10.232
			c0.453-0.632,0.794-1.345,1.187-2.02l-0.39-0.239c-3.112,4.084-6.224,8.167-9.336,12.251c-0.269-0.367-0.274-0.565-0.21-0.737
			c1.488-3.993,2.819-8.055,4.517-11.956c2.306-5.298,4.815-10.588,8.771-14.85c2.989-3.221,5.512-6.708,7.318-10.612
			c2.098-4.535,3.677-9.311,5.459-13.992c0.108-0.283,0.014-0.641,0.014-0.965c-0.733,0.302-1.305,0.73-1.553,1.298
			c-1.004,2.297-1.97,4.615-2.838,6.966c-1.444,3.915-3.396,7.534-6.046,11.122c-1.627-3.342-3.118-6.461-4.673-9.549
			c-0.293-0.581-0.842-1.032-1.272-1.542l-0.481,0.293c0.287,0.833,0.506,1.698,0.872,2.495c1.299,2.827,2.605,5.652,4.002,8.432
			c0.447,0.889,0.354,1.379-0.426,1.99c-3.041,2.385-5.481,5.281-7.294,8.718c-1.335,2.531-2.792,4.998-4.202,7.489
			c-0.172,0.304-0.393,0.581-0.591,0.871c-0.143-0.053-0.287-0.107-0.43-0.16c0.747-3.049,1.47-6.105,2.247-9.147
			c1.472-5.758,2.974-11.508,4.451-17.209c-1.267-0.613-1.622-0.137-1.857,0.755c-0.985,3.736-1.974,7.473-3.039,11.187
			c-0.588,2.05-1.328,4.056-2.138,6.501c-0.917-1.495-1.596-2.542-2.215-3.622c-2.417-4.22-4.797-8.462-7.241-12.667
			c-0.378-0.65-1.018-1.148-1.536-1.716l-0.449,0.344c0.193,0.428,0.366,0.865,0.582,1.281c2.629,5.075,5.198,10.183,7.927,15.205
			c1.317,2.424,1.802,4.777,1.011,7.49c-0.469,1.608-0.753,3.4-0.557,5.042c0.273,2.286-0.249,4.245-1.306,6.296
			c-1.276-1.558-1.472-3.786-3.676-5.084c0.335,0.929,0.489,1.496,0.738,2.018c0.54,1.132,1.14,2.235,1.694,3.36
			c1.102,2.238,0.165,3.703-2.319,3.615c-1.491-0.053-2.981-0.146-4.57-0.225c-0.087-0.283-0.233-0.654-0.315-1.039
			c-1.664-7.804-3.56-15.568-4.906-23.427c-1.158-6.765-1.651-13.642-2.514-20.459c-0.326-2.577-0.341-5.059,0.584-7.55
			c0.469-1.264,0.534-2.677,0.782-4.023c-2.136,0.84-1.411,2.987-2.45,4.375c-0.143-0.534-0.303-1.006-0.396-1.492
			c-0.624-3.253-1.244-6.506-1.842-9.764c-0.165-0.9-0.421-1.57-1.603-1.066c0.022,0.253,0.026,0.495,0.065,0.732
			c0.74,4.406,1.707,8.788,2.171,13.222c0.552,5.276,0.603,10.602,1.001,15.897c0.414,5.505,0.868,11.013,1.512,16.495
			c0.931,7.926,2.085,15.822,4.221,23.541c0.962,3.477,2.108,6.941,2.644,10.49c0.793,5.255,1.391,10.571,1.58,15.878
			c0.329,9.214,0.272,18.441,0.379,27.662c0.003,0.266-0.015,0.532-0.054,0.795c-0.372,2.496-0.758,4.991-1.145,7.519
			c-1.584-0.487-2.315-1.217-2.372-2.671c-0.062-1.599-0.413-3.184-0.551-4.783c-0.178-2.061-0.595-3.988-1.601-5.87
			c-1.915-3.582-3.619-7.28-5.306-10.977c-0.246-0.538-0.117-1.454,0.189-1.998c0.983-1.747,2.171-3.377,3.201-5.099
			c0.883-1.476,0.926-2.404,0.442-3.228c-1.784,2.591-3.608,5.241-5.649,8.205c-2.385-2.754-4.594-5.031-6.478-7.552
			c-2.039-2.729-3.779-5.681-5.628-8.549c-0.138-0.214-0.21-0.591-0.159-0.84c0.524-2.554,1.113-5.095,1.621-7.652
			c0.564-2.842,1.411-5.686,1.499-8.549c0.101-3.28-0.484-6.582-0.81-9.871c-0.036-0.363-0.328-0.701-0.501-1.051l-0.519,0.133
			c0.202,2.731,0.548,5.461,0.565,8.193c0.017,2.628-0.289,5.259-0.462,7.888c-0.224,0.055-0.212,0.052-0.436,0.108l-3.17-5.231
			c0.545,2.491,1.907,4.766,2.087,7.132c0.181,2.381-0.836,4.853-1.316,7.284c-0.274,0.04-0.269,0.039-0.543,0.079
			c-1.806-3.56-4.227-6.95-5.275-10.721c-1.569-5.642-3.774-10.876-6.794-15.836c-0.481-0.79-0.922-1.743-0.958-2.639
			c-0.098-2.416-0.213-4.878,0.133-7.256c0.785-5.4,1.084-10.858,0.684-16.301c-0.298-4.05-0.57-8.103-0.855-12.157
			c-0.966,0.226-0.974,0.349-0.905,2.12c0.19,4.867,0.494,9.737,0.451,14.603c-0.028,3.211-0.569,6.418-0.885,9.626
			c-0.238,0.009-0.166,0.007-0.404,0.016l-0.244-1.385c-0.1,0.006-0.201,0.012-0.301,0.018c0,7.383,0,14.766,0,22.315
			c-1.699-1.296-2.612-2.861-3.341-4.681c-1.822-4.551-1.009-9.449-2.054-14.092c-0.161-0.717-0.126-1.495-0.08-2.239
			c0.221-3.559,0.492-7.114,0.705-10.673c0.037-0.625-0.118-1.261-0.184-1.892l-0.454,0.021l-0.894,9.511
			c-1.059-1.179-0.472-2.904-2.183-4.019c0.138,0.997,0.193,1.636,0.32,2.259c0.388,1.917,0.904,3.815,1.18,5.747
			c0.267,1.866,0.86,3.947,0.323,5.616c-1.368,4.253-3.287,8.329-5.111,12.782c-0.439-0.539-0.569-0.668-0.664-0.818
			c-2.367-3.729-4.757-7.444-7.073-11.204c-0.522-0.848-0.958-1.244-1.912-0.42c0.226,0.457,0.436,0.958,0.709,1.422
			c2.289,3.886,4.583,7.768,6.887,11.645c3.308,5.568,5.117,11.595,5.502,18.165c-0.579-0.427-1.166-0.803-1.689-1.255
			c-3.354-2.901-6.998-5.339-10.837-7.583c-4.403-2.573-7.884-6.385-10.23-10.844c-3.052-5.801-5.485-11.93-8.167-17.925
			c-0.802-1.793-1.544-3.613-2.313-5.421l-0.482,0.121c0.048,0.554-0.013,1.146,0.165,1.654c0.463,1.324,1.041,2.608,1.555,3.915
			c2.44,6.201,4.872,12.405,7.315,18.604c0.146,0.37,0.331,0.725,0.553,1.056c3.067,4.566,6.392,8.875,10.988,12.081
			c2.96,2.065,5.75,4.373,8.619,6.568c2.233,1.709,4.528,3.343,6.684,5.144c1.116,0.932,1.989,2.156,2.972,3.248
			c-0.081,0.221-0.098,0.266-0.178,0.487c-2.127,0.319-4.244,0.762-6.383,0.931c-2.196,0.174-4.412,0.099-6.62,0.114
			c-2.096,0.014-4.191,0.003-6.287,0.003c-0.006,0.19-0.003,0.104-0.009,0.294c2.813,0.173,5.626,0.346,8.928,0.548
			c-1.458,1.431-2.6,2.551-3.743,3.673c0.162,0.181,0.092,0.103,0.255,0.284c1.086-0.899,2.145-1.835,3.27-2.683
			c0.616-0.464,1.31-1.016,2.028-1.121c2.824-0.413,5.67-0.693,8.515-0.942c0.434-0.038,1.108,0.219,1.327,0.561
			c1.596,2.488,3.105,5.034,4.638,7.556c-3.605,1.365-7.261,2.249-11.344,1.299c-4.18-0.972-8.51-1.299-12.769-1.942
			c-0.107-0.016-0.22-0.043-0.333-0.079c-0.319-0.279-0.628-0.549-0.925-0.808c-0.044-0.039-0.091-0.053-0.137-0.056
			c-0.551-0.77-1.046-1.582-1.535-2.394c-1.316-2.184-2.569-4.407-3.94-6.556c-0.342-0.536-1.033-0.851-1.563-1.267
			c-0.039,0.08-0.078,0.159-0.117,0.239c1.998,3.587,3.997,7.174,6.121,10.987c-1.535,0.167-2.586,0.238-3.619,0.416
			c-0.363,0.063-0.68,0.389-1.018,0.595c0.368,0.204,0.736,0.582,1.105,0.583c1.299,0.004,2.597-0.157,3.897-0.192
			c0.794-0.021,1.581,0.002,2.362,0.056c4.66,5.189,9.171,10.484,14.778,14.807c-3.143,1.555-6.341,0.183-9.37,0.858
			c2.389,0.973,4.957,1.252,7.337,0.727c3.582-0.79,5.965,0.468,8.111,3.137c1.536,1.91,3.616,3.409,5.013,5.4
			c4.695,6.692,9.2,13.517,13.756,20.306c0.516,0.768,0.888,1.633,1.326,2.453c-0.244,0.233-0.216,0.206-0.46,0.44
			c-3.219-1.948-6.474-3.84-9.648-5.859c-6.309-4.013-12.889-7.38-20.274-8.948c-1.312-0.279-2.685-0.482-3.883-1.039
			c-1.72-0.8-2.178-2.648-1.347-4.168c0.788-1.442,1.061-3.165,1.373-4.839c-2.245,0.8-1.402,3.389-3.12,4.662
			c-2.882-3.981-2.286-7.595-5.219-11.647c0,0,1.987,8.855,4.511,13.782c-12.364-6.245-24.728-12.491-37.139-18.76
			c-0.55,1.247,2.507,2.802,3.161,3.161c9.505,5.23,16.7,9.192,26.201,14.429c0.464,0.256,0.903,0.556,1.244,1.152
			c-3.155-0.589-6.311-1.178-9.466-1.767c-0.037,0.147-0.074,0.293-0.112,0.44c1.245,0.381,2.482,0.794,3.738,1.137
			c3.822,1.044,7.667,2.005,11.471,3.108c2.366,0.686,2.459,0.929,2.586,3.363c0.052,0.994,0.098,1.989,0.15,3.054
			c-8.834-0.231-17.727-0.267-26.554,1.048c0,0,9.163,0.657,12.678,0.617c8.808-0.101,17.564,0.505,26.135,2.678
			c1.916,0.486,3.798,1.281,5.548,2.212c3.589,1.91,7.038,4.081,10.629,5.985c1.113,0.59,2.534,0.564,3.752,0.996
			c2.158,0.767,4.297,1.605,6.377,2.56c0.554,0.255,1.023,0.98,1.261,1.594c1.359,3.506,2.618,7.051,3.957,10.565
			c0.298,0.784,0.778,1.499,1.263,2.412c-2.199-0.892-4.281-1.66-6.293-2.581c-1.25-0.572-2.604-1.17-3.531-2.126
			c-1.12-1.155-1.866-2.682-2.722-4.08c-0.837-1.369-1.609-2.78-2.409-4.172c-0.208,0.111,1.821,5.878,3.127,8.838
			c-2.033-0.644-3.873-1.524-5.451-2.87c-2.291-1.955-10.23-7.917-10.375-7.766c1.093,1.136,2.161,2.297,3.284,3.402
			c1.179,1.159,2.453,2.224,3.613,3.401c3.012,3.059,6.501,5.188,10.632,6.547c4.081,1.342,8.059,3.105,11.875,5.083
			c1.294,0.671,2.132,2.471,2.874,3.912c1.164,2.26,3.101,6.126,4.78,9.467c2.089,4.158,3.218,8.73,3.305,13.382l0.001,0.072
			c0.171,9.127-0.994,18.139-2.095,27.164c-1.003,8.225-1.899,16.462-2.842,24.694h19.004c-0.114-0.995-0.255-1.988-0.337-2.986
			c-0.771-9.36-1.555-18.72-2.283-28.084c-0.284-3.651-0.594-7.311-0.607-10.968c-0.003-0.839-0.001-1.677,0.005-2.516
			c0.061-8.536,3.691-16.656,9.98-22.429c3.862-3.545,7.983-7.365,10.556-9.879c1.831-1.789,4.187-3.08,6.408-4.424
			c6.878-4.161,12.552-9.635,17.565-15.848c4.7-5.826,9.449-11.614,14.026-17.535c1.423-1.841,3.337-2.382,5.298-3.105
			c3.618-1.333,11.413-5.249,11.934-6.195c-3.79,1.337-4.667,1.647-8.087,2.853c-0.093-0.57-2.575-0.036-2.609-0.239
			c-1.227,0.633-2.453,1.266-4.055,2.093c0.65-2.602,1.133-4.56,3.001-6.076c2.554-2.073,8.048-6.095,8.048-6.095
			c-2.404,0.528-6.381,3.157-8.416,4.778c2.561-5.384,7.178-14.161,10.044-19.548c0.139-0.261-0.233-0.484-0.399-0.24
			c-4.459,6.541-9.321,12.761-12.648,20.068c-2.229-2.706-1.622-6.133-2.969-8.928c-0.404,2.548-0.091,5.112,0.962,7.31
			c1.585,3.308,0.902,5.915-1.208,8.612c-1.51,1.93-2.496,4.297-4.117,6.11c-5.447,6.095-11.067,12.036-16.641,18.018
			c-0.631,0.677-1.388,1.236-2.086,1.85c-0.283-0.185-0.25-0.163-0.533-0.348c1.164-3.578,2.265-7.178,3.508-10.728
			c2.471-7.057,4.251-14.231,4.097-21.779c-0.027-1.341-0.142-2.725,0.128-4.017c0.387-1.857,2.083-2.724,3.752-2.261
			c1.583,0.439,3.324,0.312,5.025,0.235c-1.29-2.004-3.619-0.593-5.25-1.976c3.221-3.712,6.875-3.955,10.153-7.733
			c0,0-7.771,2.967-11.994,6.548c0,0,5.066-15.427,4.145-20.8l-1.779,6.843c-0.144,0.553-0.347,1.09-0.606,1.6l-2.791,5.501
			c-0.143,0.51-0.336,1.006-0.838,1.473c-0.145-3.207-1.096-7.031-1.144-5.73c-0.146,3.959-0.207,7.922-0.414,11.878
			c-0.129,2.46-0.345,2.606-2.686,3.283c-0.956,0.277-1.914,0.548-2.94,0.842c0,0-1.274,4.084-1.439,12.925
			c-0.037,1.977-0.383,3.99-0.891,5.906c-1.042,3.929-2.371,7.782-3.407,11.712c-0.321,1.218,0.028,2.596-0.116,3.88
			c-0.256,2.276-0.584,4.55-1.041,6.792c-0.122,0.598-0.722,1.219-1.265,1.591c-3.104,2.122-6.269,4.155-9.387,6.258
			c-0.696,0.469-1.283,1.1-2.061,1.779c0.368-2.344,0.642-4.546,1.081-6.715c0.272-1.347,0.547-2.802,1.266-3.922
			c0.869-1.354,2.187-2.428,3.354-3.579c1.143-1.127,2.34-2.199,3.514-3.296c-0.156-0.178-5.309,3.112-7.894,5.057
			c0.164-2.126,0.602-4.118,1.554-5.961c1.382-2.676,5.379-11.764,5.2-11.87c-0.857,1.323-1.745,2.627-2.564,3.973
			c-0.86,1.412-1.607,2.895-2.49,4.292c-2.293,3.63-3.572,7.511-3.954,11.844c-0.378,4.279-1.189,8.554-2.246,12.72
			c-0.359,1.413-1.921,2.638-3.155,3.689c-2.704,2.302-5.475,4.525-8.228,6.769c-0.032-5.277-0.112-10.554-0.137-15.832
			c-0.023-4.964-0.084-9.928,1.575-14.728c0.505-1.46,0.606-3.056,1.055-4.54c0.763-2.523,1.554-5.047,2.528-7.492
			c0.702-1.762,1.809-3.359,2.58-5.098c2.013-4.539,3.881-9.143,5.936-13.663c0.67-1.475,1.419-3.314,2.678-4.048
			c3.714-2.163,7.602-4.118,11.612-5.659c4.06-1.56,7.44-3.857,10.299-7.06c1.101-1.233,2.321-2.358,3.442-3.574
			c1.068-1.158,2.078-2.37,3.114-3.559c-0.152-0.143-7.789,6.2-9.982,8.265c-1.511,1.422-3.305,2.392-5.304,3.134
			c1.159-3.02,2.904-8.88,2.69-8.98c-0.731,1.43-1.432,2.876-2.202,4.285c-0.786,1.439-1.457,3.001-2.519,4.209
			c-0.879,1-2.202,1.664-3.422,2.296c-1.965,1.018-4.007,1.888-6.159,2.886c0.439-0.935,0.884-1.673,1.143-2.471
			c1.165-3.576,2.249-7.178,3.434-10.746c0.208-0.625,0.64-1.373,1.181-1.654c2.03-1.056,4.126-1.997,6.244-2.869
			c1.195-0.492,2.616-0.535,3.698-1.179c3.34-1.986,6.538-4.209,9.862-6.221c0.228-0.138,0.453-0.279,0.678-0.422
			C443.316,287.348,444.955,286.397,447.915,285.41z M336.131,258.475c0.643-1.399,1.223-2.826,1.853-4.231
			c0.644-1.437,1.315-2.861,2.034-4.419c0.488,2.068,0.897,4.004,1.407,5.914c0.645,2.42,1.819,4.506,3.813,6.136
			c0.891,0.728,1.532,1.763,2.286,2.659c-0.105,0.133-0.211,0.267-0.316,0.4c-0.434-0.155-0.887-0.272-1.299-0.471
			c-3.018-1.456-6.02-2.943-9.044-4.385C336.122,259.723,335.734,259.338,336.131,258.475z M347.928,282.657
			c-5.102-1.17-6.985-5.041-7.73-9.633c-0.586-3.607-1.696-6.994-3.272-10.261c-0.272-0.563-0.459-1.167-0.777-1.988
			c0.512,0.183,0.787,0.247,1.031,0.373c2.97,1.535,5.926,3.097,8.906,4.611c0.872,0.443,1.356,1.031,1.53,2.033
			C348.477,272.753,349.185,277.707,347.928,282.657z M339.291,337.215c-1.524-0.229-3.054-0.428-4.571-0.694
			c-2.389-0.418-3.267-1.662-3.013-4.522c2.653,1.692,5.189,3.31,7.725,4.927C339.384,337.022,339.337,337.118,339.291,337.215z
			 M338.032,332.241c7.214,2.203,13.339,6.326,19.164,10.979C350.845,339.494,343.794,337.005,338.032,332.241z M451.679,276.955
			c-5.522,5.04-12.443,7.872-18.603,11.904C438.666,283.927,444.582,279.509,451.679,276.955z M394.884,264.132
			c1.02-1.944,2.229-3.789,3.445-5.83c1.23,1.326,2.284,2.684,3.562,3.778c1.277,1.093,1.68,2.063,0.523,3.457
			c-0.335,0.404-0.507,0.988-0.626,1.518c-0.858,3.804-1.503,7.668-2.574,11.41c-0.978,3.416-2.407,6.703-3.779,10.434
			c-0.574-3.836-1.1-7.227-1.581-10.624c-0.26-1.835-0.268-3.723-0.696-5.514C392.396,269.571,393.475,266.817,394.884,264.132z
			 M387.879,254.971c2.255,0.29,4.106,0.529,6.299,0.811c-1.183,1.927-2.232,3.637-3.281,5.346c-0.158,0.017-0.316,0.033-0.474,0.05
			C389.612,259.199,388.801,257.219,387.879,254.971z M375.594,298.264c1.626,3.93,3.407,9.034,4.808,13.043
			c0.607,1.738,0.432,3.75,0.612,5.638c-0.118,0.058-0.235,0.117-0.353,0.175c-0.426-0.508-0.861-1.01-1.278-1.526
			c-1.703-2.113-3.474-4.177-5.058-6.376c-0.564-0.783-1.037-1.952-0.906-2.851c0.342-2.342,1.042-4.631,1.599-6.942
			C375.018,299.425,375.402,298.242,375.594,298.264z M357.137,271.944c3.627,6.459,7.469,12.807,11.47,19.042
			c1.523,2.373,3.714,4.316,5.552,6.401c-1.087,2.515-2.17,5.019-3.272,7.57c-0.688-1.23-1.165-2.668-2.111-3.656
			c-2.24-2.339-4.706-4.46-7.074-6.676c-2.666-2.495-5.681-4.727-7.854-7.597c-1.297-1.712-1.849-4.467-1.702-6.685
			c0.244-3.692-0.702-7.158-1.034-10.729c-0.041-0.44-0.083-0.88-0.146-1.536C353.78,268.43,355.718,269.418,357.137,271.944z
			 M364.151,306.032c-5.564-4.343-10.259-9.55-14.584-15.116C355.889,294.517,360.201,300.087,364.151,306.032z M355.271,267.666
			c-1.352-0.287-2.569-0.511-3.765-0.822c-0.318-0.083-0.751-0.384-0.82-0.663c-1.158-4.653-1.603-9.395-1.674-14.2
			C352.151,256.791,354.361,261.938,355.271,267.666z M326.516,296.852c3.402,0.398,6.703,1.366,10.007,2.301
			c0.367,0.104,0.733,0.199,1.1,0.288c0.042,2.492,1.642,6.808,2.731,9.105C336.584,305.537,330.959,300.712,326.516,296.852z
			 M341.72,308.487c-1.287-2.65-3.558-7.95-4.018-9.027c2.761,0.664,5.519,0.886,8.292,0.315c0.239,2.172,0.37,3.365,0.671,6.107
			c-0.577-0.039-0.621,2.5-0.827,2.486c0.337,1.339,0.674,2.676,1.115,4.425C344.567,311.568,342.771,310.651,341.72,308.487z
			 M379.022,361.864c-1.325-2.19-2.045-4.778-2.848-7.247c-2.486-7.645-6.524-14.416-11.433-20.711
			c-4.603-5.903-9.158-11.845-13.881-17.65c-1.469-1.805-1.56-3.792-1.817-5.866c-0.337-2.723-1.467-7.804-2.38-10.768
			c0.375-0.095,0.749-0.2,1.125-0.325c2.268-0.759,4.248-0.438,5.762,1.602c0.357,0.48,0.835,0.869,1.241,1.314
			c3.155,3.457,6.43,6.729,10.566,9.091c4.722,2.698,8.201,6.7,11.104,11.271c0.861,1.356,2.017,2.684,3.347,3.55
			c2.727,1.775,4.362,4.398,6.112,6.96c0.257,0.376,0.301,0.952,0.308,1.438c0.053,3.417,0.104,6.834,0.088,10.251
			c-0.012,2.458-0.288,4.924-0.165,7.373c0.263,5.213,0.896,10.412,1.04,15.626c0.073,2.64,0.125,5.281,0.167,7.921
			C384.72,371.001,381.81,366.471,379.022,361.864z M432.205,346.791c2.182-7.032,3.001-14.465,6.327-21.161
			C438.029,333.157,435.41,340.06,432.205,346.791z M437.328,319.416c-1.044,2.969-2.041,5.806-3.039,8.643
			c-0.104-0.023-0.208-0.047-0.313-0.071c-0.124-1.536-0.278-3.071-0.365-4.609C433.474,320.958,434.486,319.82,437.328,319.416z
			 M455.197,281.067c-1.503,0.34-3.021,0.613-4.532,0.917c-0.051-0.094-0.103-0.187-0.154-0.281c2.454-1.74,4.907-3.479,7.474-5.299
			C458.379,279.247,457.563,280.533,455.197,281.067z"/>
	</g>
	<g>
		<path style="fill:#303047;" d="M500,459.26V500H0v-44.83c6.03-1.69,13.77-3.61,18.69-3.64c8.21-0.05,17.85,0.77,25.7-0.73
			c7.85-1.49,33.19-2.78,41.75-3.2c8.57-0.42,17.85-12.07,26.16-15.52c8.32-3.45,25.49-2.23,25.49-2.23s100.38-9.67,112.53-8.84
			c12.14,0.83,133.1,8.09,135.13,7.89c2.04-0.2,18.67,3.06,28.66,2.9c10-0.16,14.99,8.72,24.63,14.29
			c9.63,5.57,24.62,4.78,33.9,4.71C479.38,450.75,489.49,455.32,500,459.26z"/>
		<g>
			<polygon style="fill:#303047;" points="82.12,449.905 83.028,454.274 75.852,455.171 69.17,428.775 56.15,432.344 
				53.654,426.283 67.523,422.273 64.755,411.341 73.608,408.986 75.871,419.861 88.044,416.342 90.56,422.909 77.261,426.554 			
				"/>
			<polygon style="fill:#3F3E59;" points="77.261,426.554 82.12,449.905 82.116,449.909 76.12,426.44 88.917,421.936 
				87.278,418.095 71.05,421.936 74.734,420.19 72.486,410.931 64.755,411.341 73.608,408.986 75.871,419.861 88.044,416.342 
				90.56,422.909 			"/>
		</g>
		<g>
			<polygon style="fill:#303047;" points="37.493,431.686 36.719,437.544 27.376,438.069 27.165,452.865 27.023,462.615 
				21.965,462.27 20.368,438.46 11.752,438.942 11.477,434.699 20.05,433.707 19.556,426.332 27.552,425.624 27.448,432.85 			"/>
			<polygon style="fill:#3F3E59;" points="37.493,431.686 36.719,437.544 27.376,438.069 27.165,452.865 27.161,452.865 
				26.346,437.724 35.67,436.874 36.237,432.831 22.087,434.075 26.346,432.762 26.346,426.876 19.556,426.332 27.552,425.624 
				27.448,432.85 			"/>
		</g>
		<g>
			<polygon style="fill:#303047;" points="458.891,414.205 458.891,420.845 443.448,421.387 437.95,454.423 429.306,453.097 
				430.332,445.489 430.332,445.484 433.526,421.736 419.883,422.215 419.883,414.205 434.543,414.205 436.115,402.493 
				446.589,402.493 444.638,414.205 			"/>
			<polygon style="fill:#3F3E59;" points="421.495,416.044 421.495,421.194 435.936,421.194 430.332,445.484 433.526,421.736 
				419.883,422.215 419.883,414.205 434.543,414.205 436.115,402.493 446.589,402.493 437.872,404.55 436.469,414.442 
				441.531,415.58 			"/>
		</g>
		<g>
			<polygon style="fill:#303047;" points="486.733,436.151 487.633,462.026 481.562,463.708 480.556,454.712 480.551,454.712 
				478.603,437.307 467.602,438.873 467.602,432.492 477.873,430.796 476.757,420.843 486.158,419.495 486.501,429.37 
				497.193,427.601 497.672,434.595 			"/>
			<polygon style="fill:#3F3E59;" points="468.578,433.416 468.578,437.679 479.947,436.34 480.556,454.712 480.551,454.712 
				478.603,437.307 467.602,438.873 467.602,432.492 477.873,430.796 476.757,420.843 486.158,419.495 478.487,421.883 
				478.976,430.371 482.915,430.656 			"/>
		</g>
	</g>
	<g>
		<path style="fill:#3F3E59;" d="M420.057,259.698c0,0-0.058,0.309-0.174,0.909c-2.215,11.857-25.358,136.575-25.358,186.729
			l-4.893-0.019l-270.143-1.209l-3.984-0.019l-3.114-98.036l-0.01-0.377h-5.957c0,0-7.601-27.476-17.302-39.11l2.969-9.101
			l18.037-55.212L420.057,259.698z"/>
		<g>
			<g>
				<g>
					<path style="fill:#868293;" d="M121.384,335.565l23.168-1.202l-0.006-12.247c-0.027-2.784-0.977-5.336-2.554-7.373
						c-2.372-3.066-6.162-4.968-10.347-4.746c-7.011,0.372-12.277,6.548-11.535,13.529L121.384,335.565z"/>
					<path style="fill:#312938;" d="M122.409,335.512l21.117-1.095l-0.006-11.792c-0.024-2.545-0.894-4.878-2.335-6.74
						c-2.169-2.803-5.633-4.541-9.459-4.339h0c-6.409,0.34-11.223,5.986-10.545,12.368L122.409,335.512z"/>
				</g>
				<g>
					<g>
						<polygon style="fill:#A7FFCF;" points="142.736,334.458 142.629,323.248 133.566,323.486 134.172,334.902 						"/>
						<path style="fill:#A7FFCF;" d="M133.502,322.282l9.091-0.238c-0.136-2.117-0.902-4.056-2.118-5.628
							c-1.764-2.28-4.461-3.792-7.495-3.983L133.502,322.282z"/>
						<path style="fill:#A7FFCF;" d="M123.301,335.375l3.548-0.093l6.12-0.318l-0.607-11.448l-10.291,0.27
							c0.001,0.005,0.001,0.011,0.001,0.016L123.301,335.375z"/>
						<path style="fill:#A7FFCF;" d="M132.297,322.313l-0.524-9.889c-5.484,0.291-9.696,4.805-9.757,10.159L132.297,322.313z"/>
					</g>
				</g>
			</g>
			<path style="fill:#606060;" d="M117.452,334.429v4.507c0,0,31.056,0.309,31.056,0c0-0.309-0.334-5.176-0.334-5.176
				L117.452,334.429z"/>
		</g>
		<g>
			<g>
				<g>
					<path style="fill:#868293;" d="M165.207,334.609l23.167-1.202l-0.006-12.247c-0.027-2.784-0.977-5.336-2.554-7.373
						c-2.372-3.066-6.161-4.968-10.347-4.746c-7.011,0.372-12.277,6.548-11.535,13.529L165.207,334.609z"/>
					<path style="fill:#312938;" d="M166.233,334.556l21.117-1.095l-0.006-11.792c-0.024-2.545-0.894-4.878-2.335-6.74
						c-2.169-2.803-5.633-4.541-9.459-4.339h0c-6.41,0.34-11.223,5.986-10.545,12.368L166.233,334.556z"/>
				</g>
				<g>
					<g>
						<polygon style="fill:#A7FFCF;" points="186.559,333.501 186.453,322.291 177.39,322.529 177.995,333.945 						"/>
						<path style="fill:#A7FFCF;" d="M177.326,321.325l9.091-0.238c-0.136-2.118-0.902-4.056-2.118-5.628
							c-1.764-2.28-4.461-3.792-7.495-3.983L177.326,321.325z"/>
						<path style="fill:#A7FFCF;" d="M167.124,334.418l3.548-0.093l6.12-0.318l-0.607-11.447l-10.291,0.27
							c0.001,0.005,0.001,0.011,0.001,0.016L167.124,334.418z"/>
						<path style="fill:#A7FFCF;" d="M176.121,321.357l-0.524-9.889c-5.484,0.291-9.696,4.805-9.757,10.158L176.121,321.357z"/>
					</g>
				</g>
			</g>
			<path style="fill:#606060;" d="M161.276,333.473v4.507c0,0,31.056,0.309,31.056,0c0-0.309-0.334-5.176-0.334-5.176
				L161.276,333.473z"/>
		</g>
		<path style="fill:#807D8E;" d="M111.859,345.8c0.145,0.638,0.3,1.267,0.445,1.876h-5.88c0,0-7.601-27.476-17.302-39.11
			l2.969-9.101C92.091,299.465,106.636,323.556,111.859,345.8z"/>
		<path style="fill:#807D8E;" d="M119.489,374.861v71.247l-3.984-0.019l-3.114-98.036
			C117.245,368.498,119.489,374.861,119.489,374.861z"/>
		<path style="fill:#807D8E;" d="M419.883,260.607c-2.215,11.857-25.358,136.575-25.358,186.729l-4.893-0.019
			c-0.3-11.132-0.106-31.828,3.511-58.887c5.551-41.547,22.746-125.84,22.746-125.84S417.475,261.787,419.883,260.607z"/>
		<path style="fill:#303047;" d="M407.514,201.654c0,0,13.983,45.41,34.152,62.907H244.016c0,0,32.477-48.867,34.359-68.229
			L407.514,201.654z"/>
		<path style="fill:#303047;" d="M413.89,327.028c0,0,13.983,32.081,34.152,44.442H250.392c0,0,32.477-34.523,34.359-48.202
			L413.89,327.028z"/>
		<g>
			<polygon style="fill:#303047;" points="342.517,337.743 327.964,328.451 331.045,264.591 346.387,261.181 			"/>
			<polygon style="fill:#494666;" points="345.211,266.935 342.517,337.743 345.211,340.948 347.924,264.561 			"/>
			<polygon style="fill:#494666;" points="407.173,270.29 399.966,268.608 403.274,258.81 408.664,267.13 			"/>
			<path style="fill:#807D8E;" d="M347.608,265.892l-2.397,75.056l34.45-0.556c0,0,9.909-43.525,14.22-56.04
				c4.311-12.515,9.394-23.17,9.394-23.17l-15.313-37.62L347.608,265.892z"/>
			<path style="fill:#494666;" d="M352.256,261.181l-3.039,75.982l27.524-1.052c0,0,14.73-63.3,24.648-79.336l-13.428-33.214
				L352.256,261.181z"/>
			<polygon style="fill:#807D8E;" points="388.737,215.363 346.387,261.181 346.387,267.13 387.84,225.119 407.173,270.29 
				412.935,270.29 			"/>
			<polygon style="fill:#5E587E;" points="388.737,215.363 369.676,216.937 331.045,259.697 346.387,261.181 			"/>
			<polygon style="fill:#494666;" points="331.045,259.697 331.045,264.591 346.387,267.13 346.387,261.181 			"/>
		</g>
		<path style="fill:#303047;" d="M235.664,342.055c0,0,14.671,24.292,35.098,33.237l-197.571,5.546c0,0,30.266-27.191,31.852-37.768
			L235.664,342.055z"/>
		<path style="fill:#303047;" d="M51.958,313.738l207.803-19.391c0,0-15.126-35.226-9.34-61.727L99.789,244.254
			C99.789,244.254,83.307,290.146,51.958,313.738z"/>
		<path style="fill:#494666;" d="M318.895,360.147l-12.747,86.617l-102.439-0.278l-10.354-86.339c0,0,52.699-5.355,53.167-5.962
			C246.99,353.579,318.895,360.147,318.895,360.147z"/>
		<rect x="234.645" y="389.918" style="fill:#A7FFCF;" width="39.479" height="59.075"/>
		<path style="fill:#303047;" d="M272.648,416.953c-0.56-3.491-1.401-6.918-2.507-10.217c-0.239-0.714-0.7-1.3-1.3-1.574
			c-3.17-1.447-3.606,6.023-7.035,2.973c-2.857-2.541-3.685-6.309-7.993-6.06c-3.874,0.224-7.287,4.457-7.344,9.108
			c-0.02,1.66,0.312,3.439-0.345,4.9c-0.898-2.779-2.586-5.182-4.724-6.704c-0.323-0.23-0.701-0.342-1.071-0.273
			c-0.855,0.161-1.031,1.101-1.078,1.926c-0.12,2.105,0.229,4.208,0.236,6.317c0.005,1.518-0.208,3.12-0.818,4.42
			c-0.435,0.925,0.013,2.097,0.887,2.265c0.556,0.107,1.131,0.082,1.677-0.077c0.629-0.184,1.254,0.332,1.37,1.096l0.309,2.042
			c0.45,0.772,1.447,0.219,2.079-0.34c0.649-0.574,1.796-0.953,2.047,0.016c0.045,0.173,0.046,0.358,0.024,0.537
			c-0.492,3.989-0.984,7.979-1.477,11.968c-0.176,1.425,0.898,2.63,2.067,2.302c0.307-0.086,0.609-0.212,0.884-0.36
			c1.039-0.557,2.126-1.342,3.234-1.027c0.715,0.203,1.281,0.832,1.886,1.33c1.746,1.436,4.06,1.829,6.07,1.032
			c0.345-0.137,0.696-0.319,0.924-0.659c0.249-0.371,0.313-0.871,0.498-1.292c0.719-1.638,2.719-1.387,4.189-0.825
			c0.79,0.302,1.703,0.616,2.363-0.177c0.33-0.396,0.475-0.961,0.439-1.52c-0.085-1.332-0.854-2.257-1.515-3.221
			c-1.651-2.407-2.754-5.349-3.161-8.427c-0.161-1.216,0.08-2.897,1.104-2.989c0.45,1.262,1.322,2.82,2.613,1.625
			c0.484-0.448,0.668-1.202,0.548-1.921c-0.194-1.16,0.497-3.441,1.629-3.007c0.455,0.175,0.718,0.749,1.134,1.03
			c0.759,0.512,1.77-0.174,2.114-1.133C272.947,419.078,272.812,417.979,272.648,416.953z M253.944,410.68
			c0.915-0.42,2.071,0.538,2.582,2.14c0.511,1.602,0.184,3.241-0.731,3.661c-0.915,0.42-2.071-0.538-2.582-2.14
			S253.029,411.1,253.944,410.68z M249.938,418.626c-0.717,0.043-1.34-0.94-1.392-2.196c-0.052-1.255,0.487-2.307,1.204-2.35
			c0.717-0.043,1.34,0.94,1.392,2.196C251.194,417.531,250.655,418.584,249.938,418.626z M256.866,420.897
			c-0.411,0.475-1.052,0.498-1.617,0.409s-1.148-0.261-1.697-0.075c-0.42,0.143-0.772,0.481-1.152,0.739
			c-0.38,0.258-0.845,0.441-1.249,0.243c-0.367-1.719,1.403-3.64,2.701-3.875c0.9-0.163,1.832,0.171,2.588,0.778
			c0.254,0.204,0.5,0.453,0.617,0.792C257.174,420.246,257.121,420.693,256.866,420.897z"/>
		<polygon style="fill:#303047;" points="176.804,352.07 193.355,361.274 318.895,361.274 333.094,352.07 248.833,345.1 		"/>
		<g>
			<path style="fill:#5E587E;" d="M200.764,200.058c0,0,21.565-45.592,26.592-89.927l50.51-7.755c0,0,17.939,61.773,35.598,92.845
				l-78.926,6.714L200.764,200.058z"/>
			<g>
				<path style="fill:#868293;" d="M270.846,157.91c0,3.384-1.077,6.52-2.91,9.076c-2.831,3.953-7.46,6.53-12.694,6.53
					c-8.618,0-15.604-6.989-15.604-15.606c0-2.637,0.653-5.12,1.809-7.299c2.618-4.942,7.814-8.308,13.795-8.308
					C263.861,142.304,270.846,149.29,270.846,157.91z"/>
				<g>
					<g>
						<path style="fill:#312938;" d="M268.091,157.91c0,2.925-0.931,5.635-2.515,7.844c-2.447,3.417-6.448,5.644-10.973,5.644
							c-7.45,0-13.488-6.04-13.488-13.488c0-2.279,0.564-4.425,1.563-6.308c2.263-4.271,6.754-7.18,11.924-7.18
							C262.053,144.423,268.091,150.461,268.091,157.91z"/>
						<g>
							<g>
								<g>
									<path style="fill:#A7FFCF;" d="M265.462,157.91c0,2.427-0.771,4.674-2.087,6.505c-0.168,0.237-0.348,0.464-0.536,0.686
										l-0.333-0.333l-5.958-5.961l6.234-6.234l0.828-0.828C264.778,153.515,265.462,155.633,265.462,157.91z"/>
								</g>
								<g>
									<path style="fill:#A7FFCF;" d="M261.68,149.53l-7.207,7.207l-7.13-7.132l-0.26-0.261c1.945-1.635,4.452-2.621,7.191-2.621
										C257.117,146.723,259.707,147.783,261.68,149.53z"/>
								</g>
								<g>
									<path style="fill:#A7FFCF;" d="M245.101,151.508c-0.262,0.374-0.502,0.764-0.717,1.17
										c-0.829,1.562-1.297,3.341-1.297,5.232c0,2.841,1.061,5.433,2.806,7.406l6.508-6.508L245.101,151.508z"/>
								</g>
								<g>
									<path style="fill:#A7FFCF;" d="M254.475,160.882l-6.363,6.363c1.768,1.169,3.885,1.852,6.164,1.852
										c2.382,0,4.588-0.746,6.401-2.014L254.475,160.882z"/>
								</g>
							</g>
						</g>
					</g>
				</g>
			</g>
			<polygon style="fill:#303047;" points="212.894,205.767 200.764,200.058 313.463,195.221 298.599,205.767 217.21,208.764 			"/>
			<path style="fill:#494666;" d="M212.894,310.9c0.029-0.001,0-105.133,0-105.133h85.705v102.598L212.894,310.9z"/>
			<g>
				<path style="fill:#868293;" d="M282.583,288.677l-10.912,1.102l-42.447,4.317l-3.259,0.328l5.308-50.234
					c0.705-6.637,4.057-12.393,8.947-16.276c4.25-3.38,9.665-5.335,15.478-5.202c0.846,0.02,1.686,0.077,2.512,0.182
					c6.582,0.835,12.338,4.333,16.151,9.399c2.661,3.535,4.368,7.836,4.737,12.533L282.583,288.677z"/>
				<path style="fill:#312938;" d="M279.044,288.911l-7.373,0.868l-42.447,4.317l5.026-46.858c0.671-6.29,3.676-11.768,8.008-15.489
					c3.773-3.236,8.557-5.134,13.685-5.059c0.74,0.006,1.474,0.06,2.203,0.153c1.142,0.145,2.262,0.384,3.338,0.735
					c4.372,1.344,8.153,4.202,10.807,8.029c2.308,3.325,3.774,7.371,4.068,11.814l2.468,38.118L279.044,288.911z"/>
				<polygon style="fill:#43374F;" points="238.116,289.706 229.224,294.096 279.044,288.911 278.828,285.54 				"/>
				<g>
					<g>
						<g>
							<path style="fill:#A7FFCF;" d="M261.952,244.958l13.865-1.238c-0.669-2.992-1.878-5.738-3.526-8.112
								c-2.654-3.827-6.435-6.685-10.807-8.029c-0.057,0.003-0.113,0.013-0.17,0.016L261.952,244.958z"/>
						</g>
						<g>
							<path style="fill:#A7FFCF;" d="M262.794,267.914l14.807-1.323l-1.241-19.169c-0.024-0.367-0.069-0.726-0.109-1.087
								l-14.202,1.269L262.794,267.914z"/>
						</g>
						<g>
							<polygon style="fill:#A7FFCF;" points="259.412,247.839 242.441,249.355 240.236,269.929 260.158,268.149 							"/>
						</g>
						<g>
							<polygon style="fill:#A7FFCF;" points="262.891,270.559 263.499,287.121 277.255,285.721 278.828,285.54 277.772,269.23 
															"/>
						</g>
						<g>
							<path style="fill:#A7FFCF;" d="M259.315,245.193l-0.632-17.238c-3.171,0.667-6.095,2.148-8.548,4.258
								c-4.003,3.431-6.769,8.481-7.387,14.281l-0.02,0.181L259.315,245.193z"/>
						</g>
						<g>
							<polygon style="fill:#A7FFCF;" points="260.254,270.795 239.948,272.609 238.116,289.706 260.863,287.39 							"/>
						</g>
					</g>
				</g>
			</g>
		</g>
		<polygon style="fill:#5E587E;" points="153.657,354.145 353.885,351.273 316.23,307.1 203.007,309.68 		"/>
		<path style="fill:#807D8E;" d="M380.084,255.39c0,0-5.916-1.906-10.787,2.278c-3.815,3.276-6.131,25.5-8.668,43.998
			c-1.911,13.942-4.576,25.768-4.576,25.768l2.788,1.239L380.084,255.39z"/>
		<g>
			<path style="fill:#312938;" d="M374.468,329.212l10.201-58.389c0.439-2.427,1.121-5.906,0.593-9.024
				c-0.743-4.39-4.958-7.895-9.473-6.505c-5.278,1.625-7.32,7.806-8.042,12.725c-0.007,0.046-7.718,52.568-8.906,60.656
				L374.468,329.212z"/>
			<g>
				<g>
					<polygon style="fill:#A7FFCF;" points="377.333,303.795 371.884,302.898 369.462,319.003 374.73,319.87 					"/>
					<path style="fill:#A7FFCF;" d="M367.824,318.733l2.422-16.105l-5.845-0.962c-0.799,5.738-1.588,11.398-2.248,16.134
						L367.824,318.733z"/>
					<path style="fill:#A7FFCF;" d="M374.69,284.243l5.66,0.932l2.114-13.051c0.109-0.655,0.22-1.31,0.321-1.967
						c0.016-0.108,0.032-0.217,0.048-0.325l-5.83-0.96L374.69,284.243z"/>
					<polygon style="fill:#A7FFCF;" points="377.599,302.157 380.084,286.813 374.443,285.885 372.131,301.257 					"/>
					<path style="fill:#A7FFCF;" d="M364.631,300.022l5.863,0.965l2.312-15.372l-6.029-0.993
						C366.127,289.284,365.379,294.648,364.631,300.022z"/>
					<path style="fill:#A7FFCF;" d="M377.249,267.23l5.808,0.956c0.255-2.152,0.336-4.36-0.189-6.452
						c-0.514-2.049-2.05-4.141-4.079-4.741L377.249,267.23z"/>
					<polygon style="fill:#A7FFCF;" points="373.223,329.169 374.464,321.508 369.215,320.644 367.96,328.988 					"/>
					<path style="fill:#A7FFCF;" d="M366.29,328.93l1.287-8.556l-5.653-0.931c-0.593,4.258-1.058,7.594-1.295,9.292L366.29,328.93z"
						/>
					<path style="fill:#A7FFCF;" d="M375.612,266.96l1.52-10.108c-0.195,0.024-0.392,0.06-0.592,0.113
						c-3.894,1.035-5.863,5.055-6.911,9.01L375.612,266.96z"/>
					<path style="fill:#A7FFCF;" d="M373.053,283.974l2.312-15.372l-6.123-1.008c-0.205,0.976-0.361,1.922-0.482,2.788
						c-0.001,0.009-0.73,5.24-1.755,12.597L373.053,283.974z"/>
				</g>
			</g>
		</g>
		<g>
			<g>
				<path style="fill:#868293;" d="M331.828,434.973l34.729-0.04l1.705-33.196c0.184-4.343-1.092-8.397-3.385-11.7
					c-3.45-4.972-9.203-8.242-15.746-8.235l0,0c-10.96,0.013-19.667,9.214-19.076,20.158L331.828,434.973z"/>
				<path style="fill:#312938;" d="M333.43,434.971l31.524-0.036l1.669-32.488c0.168-3.97-0.999-7.676-3.094-10.696
					c-3.154-4.545-8.413-7.535-14.394-7.528l0,0c-10.019,0.011-17.98,8.423-17.439,18.428L333.43,434.971z"/>
			</g>
			<g>
				<g>
					<polygon style="fill:#A7FFCF;" points="365.184,403.346 351.037,402.984 351.057,421.123 364.417,421.466 					"/>
					<path style="fill:#A7FFCF;" d="M351.035,401.102l14.192,0.364c-0.042-3.312-1.078-6.396-2.847-8.944
						c-2.566-3.698-6.647-6.272-11.362-6.816L351.035,401.102z"/>
					<path style="fill:#A7FFCF;" d="M349.156,402.935l-16.064-0.412c0,0.009,0,0.017,0.001,0.025l0.98,18.139l15.104,0.387
						L349.156,402.935z"/>
					<polygon style="fill:#A7FFCF;" points="351.06,423.005 351.073,434.951 363.846,434.937 364.337,423.345 					"/>
					<polygon style="fill:#A7FFCF;" points="349.178,422.957 334.174,422.572 334.845,434.97 349.192,434.953 					"/>
					<path style="fill:#A7FFCF;" d="M349.153,401.054l-0.018-15.458c-8.573,0.01-15.503,6.706-16.031,15.047L349.153,401.054z"/>
				</g>
			</g>
		</g>
		<g>
			<g>
				<path style="fill:#868293;" d="M144.961,434.622l31.41-1.404l0.234-30.092c-0.005-3.935-1.319-7.551-3.522-10.449
					c-3.317-4.361-8.649-7.092-14.566-6.828l0,0c-9.912,0.443-17.426,9.109-16.46,18.984L144.961,434.622z"/>
				<path style="fill:#312938;" d="M146.41,434.557l28.511-1.275l0.229-29.45c-0.004-3.597-1.206-6.904-3.22-9.552
					c-3.032-3.987-7.907-6.484-13.316-6.242h0c-9.062,0.405-15.93,8.327-15.047,17.355L146.41,434.557z"/>
			</g>
			<g>
				<g>
					<polygon style="fill:#A7FFCF;" points="173.885,404.702 161.075,404.932 161.808,421.338 173.905,421.121 					"/>
					<path style="fill:#A7FFCF;" d="M160.999,403.23l12.85-0.23c-0.168-2.994-1.227-5.742-2.928-7.978
						c-2.467-3.243-6.26-5.411-10.545-5.717L160.999,403.23z"/>
					<path style="fill:#A7FFCF;" d="M159.371,404.962l-14.546,0.26c0.001,0.008,0.001,0.015,0.002,0.023l1.601,16.367l13.676-0.245
						L159.371,404.962z"/>
					<polygon style="fill:#A7FFCF;" points="161.884,423.039 162.367,433.844 173.92,433.328 173.907,422.824 					"/>
					<polygon style="fill:#A7FFCF;" points="160.181,423.07 146.595,423.313 147.69,434.5 160.666,433.92 					"/>
					<path style="fill:#A7FFCF;" d="M159.295,403.26l-0.625-13.981c-7.754,0.347-13.758,6.676-13.907,14.241L159.295,403.26z"/>
				</g>
			</g>
		</g>
		<g>
			<g>
				<rect x="213.239" y="449.858" style="fill:#3F3E59;" width="82.701" height="4.865"/>
				<polygon style="fill:#303047;" points="295.94,449.858 213.239,449.858 218.584,446.832 290.595,446.832 				"/>
				<path style="fill:#3F3E59;" d="M218.093,447.11c0,0,9.599-0.144,9.879,0c0.279,0.144-0.808,1.912-0.808,1.912
					s1.133-1.706,1.495-1.737c0.363-0.031,15.086,0.217,15.63,0.403c0.544,0.186,0.227,1.334,0.227,1.334s0.725-1.83,1.268-1.83
					c0.544,0,16.355,0.093,16.581,0.186c0.227,0.093,0.272,1.986,0.272,1.986s0.544-1.986,0.815-2.017
					c0.272-0.031,9.831-0.186,10.148-0.031c0.317,0.155,0.453,1.029,0.453,1.029s0.861-0.874,1.042-0.905
					c0.181-0.031-0.951-1.201-0.951-1.201l-54.59,0.177L218.093,447.11z"/>
				<polygon style="fill:#3F3E59;" points="266.724,446.832 289.924,449.858 283.008,446.832 				"/>
				<rect x="207.105" y="457.749" style="fill:#3F3E59;" width="94.969" height="4.865"/>
				<polygon style="fill:#303047;" points="302.074,457.749 207.104,457.749 212.563,455.058 212.565,455.058 213.244,454.723 
					295.937,454.723 297.19,455.34 				"/>
				<g>
					<rect x="226.802" y="385.819" style="fill:#3F3E59;" width="55.807" height="4.77"/>
					<g>
						<rect x="226.854" y="445.645" style="fill:#3F3E59;" width="55.472" height="1.187"/>
						<path style="fill:#303047;" d="M290.279,386.463h-71.488c0.003-0.015,0.003-0.028,0.005-0.043
							c1.959-17.878,17.212-31.794,35.739-31.794C273.077,354.626,288.34,368.565,290.279,386.463z"/>
						<path style="fill:#868293;" d="M284.99,386.463h-60.909c0.038-0.364,0.085-0.722,0.138-1.081
							c2.134-14.727,14.894-26.047,30.316-26.047C270.334,359.336,283.338,371.212,284.99,386.463z"/>
						<path style="fill:#303047;" d="M281.463,386.463c-1.461-9.3-12.958-16.542-26.927-16.542s-25.467,7.242-26.928,16.542H281.463
							z"/>
						<path style="fill:#303047;" d="M280.287,386.463h-51.504c1.396-12.896,12.392-22.936,25.752-22.936
							C267.896,363.527,278.891,373.567,280.287,386.463z"/>
						<g>
							<g>
								<path style="fill:#303047;" d="M281.208,386.514v8.151h11.098c0,0-0.133-0.293-0.23-0.803
									c-0.243-1.279-0.251-3.92,2.697-6.698c0.228-0.216,0.474-0.431,0.74-0.649H281.208z"/>
								<rect x="281.208" y="384.595" style="fill:#868293;" width="14.305" height="1.919"/>
								<rect x="281.208" y="395.473" style="fill:#303047;" width="9.387" height="51.358"/>
								<polygon style="fill:#868293;" points="281.208,394.665 281.208,395.473 290.595,395.473 291.843,394.884 292.306,394.665 
																	"/>
							</g>
							<path style="fill:#303047;" d="M288.295,439.64c0.049-0.854,0.067-1.461,0.067-1.461S288.321,438.779,288.295,439.64z"/>
							<path style="fill:#3F3E59;" d="M281.208,395.473v51.358h9.387v-3.448c-0.446,1.247-0.927,2.192-1.37,2.263
								c-0.986,0.154-1.002-3.766-0.93-5.986c-0.1,1.715-0.323,4.406-0.779,5.185c-0.684,1.17-2.049,1.17-2.902,0.802
								c-0.855-0.368-0.512-15.886-0.512-15.886s-1.196,16.487-2.049,16.479c-0.855-0.009-0.156-49.219,0.689-49.336
								c0.848-0.117,0.932,5.16,0.932,5.16s0.169-5.216,1.862-5.16c1.693,0.056,2.031,15.072,2.031,15.072s0.338-14.897,1.693-15.07
								c0.515-0.067,0.971,2.608,1.334,5.944v-7.375H281.208z"/>
							<path style="fill:#3F3E59;" d="M281.208,386.514v8.151h11.098c0,0-0.133-0.293-0.23-0.803
								c-2.052,0.01-7.761,0.016-7.884-0.207c-0.149-0.27,5.194-0.509,5.194-0.509s-4.206,0.068-4.997-0.304
								c-0.791-0.374-0.397-2.847-0.297-3.559c0.1-0.71,6.037-0.745,6.037-0.745c-0.956-0.013-1.912-0.035-2.867-0.067
								c-0.649-0.022-1.298-0.046-1.945-0.091c-0.422-0.029-0.94-0.01-1.175-0.279c-0.768-0.875,1.456-0.924,2.178-0.959
								c2.806-0.135,5.645-0.06,8.453,0.02c0.228-0.216,0.474-0.431,0.74-0.649H281.208z"/>
							<path style="fill:#3F3E59;" d="M286.757,429.565c0,0,0.31-17.593,0-18.574c0,0-0.85,10.193-0.855,11.628
								C285.896,424.054,286.757,429.565,286.757,429.565z"/>
						</g>
						<g>
							<g>
								<path style="fill:#303047;" d="M227.972,386.514v8.151h-11.098c0,0,0.133-0.293,0.23-0.803
									c0.243-1.279,0.251-3.92-2.697-6.698c-0.228-0.216-0.474-0.431-0.74-0.649H227.972z"/>
								<rect x="213.667" y="384.595" style="fill:#868293;" width="14.305" height="1.919"/>
								<rect x="218.584" y="395.473" style="fill:#303047;" width="9.387" height="51.358"/>
								<polygon style="fill:#868293;" points="227.972,394.665 227.972,395.473 218.584,395.473 217.337,394.884 216.873,394.665 
																	"/>
							</g>
							<path style="fill:#303047;" d="M220.884,439.64c-0.049-0.854-0.067-1.461-0.067-1.461S220.859,438.779,220.884,439.64z"/>
						</g>
					</g>
					<g>
						<polygon style="fill:#303047;" points="276.856,389.255 291.774,383.915 291.774,450.545 277.663,445.302 						"/>
						<rect x="291.774" y="383.915" style="fill:#3F3E59;" width="4.166" height="66.63"/>
						<polygon style="fill:#3F3E59;" points="289.48,389.244 282.165,391.466 282.165,415.158 279.068,415.835 279.068,390.121 
							289.48,386.592 						"/>
						<polygon style="fill:#3F3E59;" points="289.48,421.611 282.1,420.979 282.1,442.234 279.464,443.817 279.464,419.174 
							289.48,419.987 						"/>
						<polygon style="fill:#5D6070;" points="282.1,442.234 288.49,444.037 289.48,419.987 289.48,446.95 279.464,443.817 						"/>
						<polygon style="fill:#5D6070;" points="282.165,415.158 287.994,415.433 289.48,386.592 289.48,416.277 279.068,415.835 
													"/>
						<polygon style="fill:#3F3E59;" points="283.244,390.103 283.674,402.063 283.983,390.103 						"/>
						<polyline style="fill:#3F3E59;" points="286.757,389.288 286.757,405.698 287.263,389.288 						"/>
						<polyline style="fill:#3F3E59;" points="283.393,420.58 283.393,435.121 284.087,420.58 						"/>
						<polyline style="fill:#3F3E59;" points="286.398,420.784 286.398,430.263 286.895,420.784 						"/>
					</g>
				</g>
				<path style="fill:#3F3E59;" d="M286.365,457.224c-0.141-0.21-1.268-1.893-1.893-1.893c-0.666,0-22.064-0.298-22.438-0.212
					c-0.371,0.084-1.924,2.126-2.111,2.126c-0.187,0,0.622-2.084,0.374-2.317c-0.248-0.235-18.444-0.205-18.818,0
					c-0.359,0.196-1.478,1.868-1.55,1.971c0.038-0.109,0.674-1.91,0.433-1.956c-0.248-0.047-12.481,0.005-13.509,0.175
					c-0.95,0.156-1.808,1.326-1.939,1.507c0.108-0.177,0.771-1.277,0.543-1.549c-0.21-0.251-9.874-0.079-12.894-0.019l0.679-0.335
					h82.693l1.253,0.617c-3.588-0.13-10.701-0.381-11.288-0.349C285.159,455.032,286.24,457,286.365,457.224z"/>
			</g>
			<path style="fill:#3F3E59;" d="M212.565,457.947l1.688-1.963c0,0-0.914,1.845-0.844,1.963
				C213.479,458.064,212.565,457.947,212.565,457.947z"/>
			<path style="fill:#3F3E59;" d="M230.671,458.3c0,0,1.203-2.166,1.347-2.064c0.143,0.102-0.673,2.143-0.673,2.143l-0.902,0.098"/>
			<polyline style="fill:#3F3E59;" points="248.349,458.378 249.553,456.357 248.951,458.476 			"/>
			<polyline style="fill:#3F3E59;" points="273.592,458.633 274.567,456.514 274.08,458.633 			"/>
		</g>
	</g>
</g>
<g id="DESIGNED_BY_FREEPIK">
	<g id="XMLID_4_">
		<g>
			<g id="XMLID_561_">
				<path id="XMLID_586_" style="fill:#FFFFFF;" d="M181.095,481.285v-0.159c-0.215,0.246-0.427,0.447-0.637,0.601
					c-0.209,0.155-0.436,0.273-0.681,0.352c-0.244,0.081-0.511,0.121-0.801,0.121c-0.384,0-0.739-0.081-1.066-0.243
					c-0.327-0.162-0.609-0.395-0.848-0.696c-0.239-0.301-0.42-0.655-0.543-1.062c-0.123-0.407-0.185-0.847-0.185-1.32
					c0-1.002,0.245-1.783,0.734-2.343c0.489-0.559,1.133-0.839,1.931-0.839c0.461,0,0.851,0.08,1.168,0.237
					c0.317,0.159,0.626,0.403,0.927,0.731V474.3c0-0.329,0.065-0.577,0.197-0.745c0.131-0.168,0.317-0.252,0.56-0.252
					c0.242,0,0.429,0.077,0.56,0.232c0.131,0.155,0.197,0.382,0.197,0.684v7.066c0,0.305-0.07,0.534-0.211,0.687
					c-0.141,0.152-0.323,0.229-0.546,0.229c-0.219,0-0.4-0.079-0.543-0.237C181.166,481.804,181.095,481.578,181.095,481.285z
					 M177.943,478.931c0,0.435,0.068,0.804,0.202,1.109c0.135,0.305,0.32,0.535,0.555,0.689c0.235,0.155,0.491,0.233,0.769,0.233
					c0.282,0,0.539-0.074,0.772-0.221c0.233-0.146,0.419-0.372,0.557-0.674c0.139-0.303,0.208-0.683,0.208-1.136
					c0-0.427-0.069-0.794-0.208-1.101c-0.139-0.306-0.327-0.541-0.563-0.704c-0.237-0.162-0.496-0.243-0.778-0.243
					c-0.293,0-0.555,0.083-0.786,0.249c-0.231,0.166-0.41,0.404-0.537,0.716C178.007,478.159,177.943,478.52,177.943,478.931z"/>
				<path id="XMLID_583_" style="fill:#FFFFFF;" d="M188.16,479.337h-3.134c0.004,0.363,0.077,0.684,0.22,0.962
					c0.142,0.278,0.333,0.488,0.569,0.628c0.237,0.141,0.498,0.211,0.784,0.211c0.192,0,0.367-0.022,0.525-0.066
					c0.159-0.046,0.312-0.115,0.461-0.212c0.149-0.095,0.285-0.199,0.411-0.308c0.125-0.11,0.287-0.259,0.487-0.447
					c0.082-0.07,0.2-0.106,0.353-0.106c0.164,0,0.297,0.046,0.398,0.136c0.102,0.091,0.153,0.217,0.153,0.381
					c0,0.145-0.057,0.313-0.17,0.508c-0.114,0.194-0.285,0.38-0.514,0.558c-0.23,0.178-0.516,0.325-0.863,0.443
					c-0.346,0.118-0.744,0.176-1.194,0.176c-1.029,0-1.829-0.294-2.4-0.88c-0.571-0.586-0.857-1.383-0.857-2.388
					c0-0.474,0.07-0.913,0.211-1.317c0.141-0.406,0.347-0.753,0.616-1.042c0.27-0.29,0.602-0.511,0.998-0.666
					c0.395-0.155,0.833-0.231,1.315-0.231c0.626,0,1.163,0.131,1.61,0.396c0.449,0.264,0.785,0.605,1.007,1.023
					c0.222,0.419,0.335,0.846,0.335,1.279c0,0.404-0.115,0.664-0.346,0.785C188.905,479.277,188.579,479.337,188.16,479.337z
					 M185.027,478.427h2.905c-0.039-0.548-0.188-0.958-0.443-1.23c-0.257-0.272-0.593-0.408-1.012-0.408
					c-0.399,0-0.727,0.138-0.983,0.413C185.237,477.478,185.082,477.887,185.027,478.427z"/>
				<path id="XMLID_581_" style="fill:#FFFFFF;" d="M195.461,480.104c0,0.442-0.107,0.821-0.323,1.136
					c-0.215,0.315-0.533,0.554-0.954,0.716c-0.42,0.162-0.932,0.243-1.535,0.243c-0.575,0-1.068-0.088-1.479-0.264
					c-0.411-0.176-0.714-0.397-0.909-0.66c-0.196-0.265-0.294-0.529-0.294-0.796c0-0.176,0.062-0.326,0.188-0.451
					c0.125-0.125,0.284-0.188,0.475-0.188c0.168,0,0.297,0.041,0.387,0.123c0.09,0.082,0.176,0.198,0.258,0.346
					c0.164,0.287,0.361,0.498,0.59,0.64c0.229,0.141,0.54,0.211,0.936,0.211c0.321,0,0.584-0.072,0.789-0.214
					c0.205-0.144,0.308-0.307,0.308-0.491c0-0.282-0.106-0.486-0.32-0.616c-0.213-0.129-0.565-0.253-1.054-0.371
					c-0.551-0.136-1.001-0.281-1.347-0.431c-0.346-0.15-0.623-0.349-0.83-0.595c-0.207-0.247-0.311-0.55-0.311-0.91
					c0-0.32,0.096-0.624,0.288-0.91c0.192-0.285,0.475-0.513,0.849-0.683c0.373-0.171,0.824-0.256,1.352-0.256
					c0.415,0,0.788,0.043,1.118,0.13c0.331,0.085,0.607,0.202,0.828,0.346c0.221,0.144,0.389,0.305,0.504,0.48
					c0.115,0.176,0.173,0.348,0.173,0.517c0,0.184-0.061,0.334-0.184,0.452c-0.123,0.117-0.298,0.176-0.526,0.176
					c-0.164,0-0.304-0.047-0.419-0.142c-0.115-0.093-0.247-0.234-0.396-0.422c-0.121-0.156-0.263-0.282-0.428-0.376
					c-0.165-0.094-0.387-0.141-0.67-0.141c-0.29,0-0.53,0.061-0.722,0.185c-0.192,0.122-0.288,0.276-0.288,0.46
					c0,0.169,0.07,0.307,0.211,0.414c0.141,0.108,0.331,0.197,0.57,0.267c0.239,0.07,0.567,0.156,0.986,0.258
					c0.496,0.122,0.902,0.267,1.217,0.434c0.315,0.168,0.553,0.367,0.717,0.596C195.38,479.551,195.461,479.811,195.461,480.104z"/>
				<path id="XMLID_578_" style="fill:#FFFFFF;" d="M197.098,474.941c-0.223,0-0.414-0.069-0.572-0.206
					c-0.158-0.136-0.238-0.33-0.238-0.581c0-0.228,0.081-0.413,0.243-0.561c0.162-0.147,0.352-0.22,0.566-0.22
					c0.208,0,0.391,0.066,0.551,0.2c0.161,0.133,0.241,0.327,0.241,0.581c0,0.247-0.079,0.439-0.235,0.578
					C197.499,474.871,197.313,474.941,197.098,474.941z M197.891,476.595v4.63c0,0.321-0.076,0.564-0.229,0.728
					c-0.153,0.164-0.346,0.246-0.581,0.246s-0.426-0.084-0.572-0.252c-0.147-0.168-0.22-0.409-0.22-0.722v-4.584
					c0-0.316,0.073-0.555,0.22-0.716c0.147-0.161,0.337-0.241,0.572-0.241s0.428,0.08,0.581,0.241
					C197.814,476.087,197.891,476.31,197.891,476.595z"/>
				<path id="XMLID_575_" style="fill:#FFFFFF;" d="M204.91,476.86v4.654c0,0.532-0.057,0.99-0.171,1.374
					c-0.112,0.383-0.295,0.7-0.545,0.95c-0.25,0.25-0.578,0.436-0.983,0.557c-0.405,0.122-0.909,0.182-1.512,0.182
					c-0.552,0-1.045-0.077-1.479-0.232c-0.434-0.155-0.768-0.354-1.004-0.599c-0.234-0.244-0.352-0.496-0.352-0.754
					c0-0.196,0.067-0.356,0.2-0.478c0.133-0.124,0.294-0.185,0.481-0.185c0.235,0,0.44,0.104,0.616,0.311
					c0.086,0.106,0.175,0.213,0.267,0.32c0.092,0.108,0.194,0.2,0.305,0.276c0.112,0.075,0.246,0.132,0.402,0.17
					c0.157,0.036,0.337,0.056,0.54,0.056c0.415,0,0.737-0.057,0.966-0.173c0.229-0.115,0.39-0.277,0.481-0.484
					c0.092-0.206,0.146-0.429,0.161-0.666c0.016-0.237,0.027-0.617,0.035-1.142c-0.247,0.345-0.531,0.608-0.854,0.788
					c-0.322,0.18-0.707,0.27-1.153,0.27c-0.536,0-1.004-0.137-1.406-0.411c-0.401-0.274-0.709-0.657-0.924-1.15
					c-0.215-0.494-0.323-1.062-0.323-1.708c0-0.481,0.065-0.916,0.196-1.303c0.132-0.388,0.318-0.715,0.561-0.981
					c0.243-0.266,0.522-0.467,0.839-0.602c0.317-0.135,0.665-0.202,1.045-0.202c0.453,0,0.847,0.087,1.18,0.261
					c0.332,0.175,0.642,0.448,0.927,0.819v-0.218c0-0.278,0.068-0.492,0.205-0.646c0.137-0.152,0.313-0.229,0.529-0.229
					c0.309,0,0.514,0.101,0.616,0.302C204.859,476.189,204.91,476.48,204.91,476.86z M200.267,478.89
					c0,0.649,0.142,1.141,0.425,1.473c0.284,0.333,0.651,0.499,1.101,0.499c0.266,0,0.517-0.072,0.754-0.214
					c0.237-0.143,0.43-0.358,0.579-0.646c0.148-0.288,0.223-0.637,0.223-1.048c0-0.653-0.144-1.162-0.431-1.525
					c-0.288-0.364-0.666-0.546-1.136-0.546c-0.458,0-0.825,0.174-1.1,0.523C200.405,477.753,200.267,478.249,200.267,478.89z"/>
				<path id="XMLID_573_" style="fill:#FFFFFF;" d="M207.456,476.572v0.194c0.281-0.372,0.59-0.645,0.924-0.819
					c0.335-0.174,0.719-0.261,1.153-0.261c0.423,0,0.8,0.092,1.133,0.276c0.332,0.184,0.581,0.444,0.745,0.78
					c0.106,0.196,0.174,0.408,0.205,0.634c0.031,0.228,0.048,0.517,0.048,0.869v2.981c0,0.321-0.074,0.564-0.221,0.728
					c-0.147,0.164-0.337,0.246-0.572,0.246c-0.239,0-0.432-0.084-0.581-0.252c-0.149-0.168-0.223-0.409-0.223-0.722v-2.67
					c0-0.528-0.074-0.932-0.22-1.212c-0.147-0.279-0.439-0.42-0.878-0.42c-0.285,0-0.546,0.085-0.78,0.255
					c-0.235,0.171-0.407,0.405-0.517,0.702c-0.078,0.239-0.117,0.684-0.117,1.338v2.007c0,0.325-0.076,0.569-0.226,0.731
					c-0.151,0.162-0.345,0.243-0.584,0.243c-0.231,0-0.421-0.084-0.57-0.252c-0.148-0.168-0.223-0.409-0.223-0.722v-4.63
					c0-0.305,0.066-0.534,0.199-0.684c0.133-0.15,0.315-0.226,0.546-0.226c0.141,0,0.268,0.033,0.382,0.1
					c0.113,0.067,0.204,0.166,0.273,0.299C207.422,476.218,207.456,476.38,207.456,476.572z"/>
				<path id="XMLID_570_" style="fill:#FFFFFF;" d="M217.204,479.337h-3.134c0.004,0.363,0.077,0.684,0.22,0.962
					c0.143,0.278,0.332,0.488,0.569,0.628c0.236,0.141,0.498,0.211,0.783,0.211c0.192,0,0.367-0.022,0.526-0.066
					c0.158-0.046,0.311-0.115,0.461-0.212c0.148-0.095,0.285-0.199,0.411-0.308c0.125-0.11,0.287-0.259,0.487-0.447
					c0.082-0.07,0.2-0.106,0.352-0.106c0.164,0,0.297,0.046,0.399,0.136c0.102,0.091,0.152,0.217,0.152,0.381
					c0,0.145-0.056,0.313-0.17,0.508c-0.114,0.194-0.285,0.38-0.514,0.558c-0.229,0.178-0.516,0.325-0.862,0.443
					c-0.346,0.118-0.745,0.176-1.195,0.176c-1.029,0-1.829-0.294-2.401-0.88c-0.57-0.586-0.856-1.383-0.856-2.388
					c0-0.474,0.071-0.913,0.211-1.317c0.141-0.406,0.347-0.753,0.617-1.042c0.27-0.29,0.602-0.511,0.997-0.666
					c0.395-0.155,0.834-0.231,1.315-0.231c0.626,0,1.162,0.131,1.61,0.396c0.448,0.264,0.784,0.605,1.007,1.023
					c0.223,0.419,0.335,0.846,0.335,1.279c0,0.404-0.115,0.664-0.346,0.785C217.948,479.277,217.623,479.337,217.204,479.337z
					 M214.07,478.427h2.905c-0.039-0.548-0.187-0.958-0.443-1.23c-0.257-0.272-0.594-0.408-1.012-0.408
					c-0.399,0-0.727,0.138-0.984,0.413C214.28,477.478,214.125,477.887,214.07,478.427z"/>
				<path id="XMLID_567_" style="fill:#FFFFFF;" d="M223.735,481.285v-0.159c-0.215,0.246-0.427,0.447-0.637,0.601
					c-0.209,0.155-0.436,0.273-0.681,0.352c-0.244,0.081-0.511,0.121-0.801,0.121c-0.384,0-0.739-0.081-1.065-0.243
					c-0.327-0.162-0.61-0.395-0.848-0.696c-0.239-0.301-0.42-0.655-0.543-1.062c-0.123-0.407-0.185-0.847-0.185-1.32
					c0-1.002,0.244-1.783,0.734-2.343c0.489-0.559,1.133-0.839,1.931-0.839c0.462,0,0.851,0.08,1.168,0.237
					c0.317,0.159,0.626,0.403,0.927,0.731V474.3c0-0.329,0.066-0.577,0.197-0.745c0.131-0.168,0.318-0.252,0.561-0.252
					c0.242,0,0.429,0.077,0.56,0.232c0.131,0.155,0.197,0.382,0.197,0.684v7.066c0,0.305-0.07,0.534-0.211,0.687
					c-0.141,0.152-0.323,0.229-0.546,0.229c-0.219,0-0.4-0.079-0.543-0.237C223.807,481.804,223.735,481.578,223.735,481.285z
					 M220.584,478.931c0,0.435,0.067,0.804,0.202,1.109c0.135,0.305,0.32,0.535,0.555,0.689c0.234,0.155,0.491,0.233,0.768,0.233
					c0.282,0,0.539-0.074,0.772-0.221c0.233-0.146,0.419-0.372,0.558-0.674c0.139-0.303,0.208-0.683,0.208-1.136
					c0-0.427-0.069-0.794-0.208-1.101c-0.139-0.306-0.327-0.541-0.563-0.704c-0.237-0.162-0.496-0.243-0.778-0.243
					c-0.293,0-0.555,0.083-0.786,0.249c-0.23,0.166-0.41,0.404-0.537,0.716C220.647,478.159,220.584,478.52,220.584,478.931z"/>
				<path id="XMLID_564_" style="fill:#FFFFFF;" d="M230.284,474.218v2.447c0.301-0.313,0.608-0.553,0.921-0.719
					c0.313-0.166,0.701-0.249,1.162-0.249c0.532,0,0.998,0.126,1.4,0.378c0.4,0.254,0.711,0.619,0.933,1.098
					c0.221,0.479,0.332,1.048,0.332,1.705c0,0.485-0.062,0.929-0.185,1.335c-0.123,0.405-0.303,0.756-0.537,1.053
					c-0.235,0.298-0.52,0.528-0.854,0.69c-0.335,0.162-0.704,0.243-1.106,0.243c-0.247,0-0.479-0.029-0.695-0.088
					c-0.218-0.059-0.403-0.135-0.555-0.232c-0.152-0.095-0.282-0.194-0.39-0.296c-0.108-0.101-0.25-0.255-0.426-0.458v0.159
					c0,0.301-0.072,0.529-0.217,0.684c-0.144,0.154-0.328,0.231-0.552,0.231c-0.227,0-0.408-0.077-0.543-0.231
					c-0.135-0.155-0.202-0.383-0.202-0.684v-6.997c0-0.325,0.065-0.57,0.196-0.736c0.131-0.166,0.315-0.249,0.549-0.249
					c0.247,0,0.436,0.079,0.569,0.237C230.217,473.699,230.284,473.924,230.284,474.218z M230.361,478.978
					c0,0.638,0.146,1.127,0.437,1.47c0.292,0.343,0.674,0.515,1.147,0.515c0.403,0,0.75-0.175,1.042-0.526
					c0.292-0.351,0.437-0.852,0.437-1.506c0-0.422-0.06-0.787-0.182-1.092c-0.122-0.305-0.293-0.541-0.516-0.707
					c-0.223-0.166-0.484-0.249-0.781-0.249c-0.305,0-0.577,0.083-0.816,0.249c-0.239,0.166-0.426,0.407-0.564,0.722
					C230.429,478.169,230.361,478.544,230.361,478.978z"/>
				<path id="XMLID_562_" style="fill:#FFFFFF;" d="M237.11,482.4l0.147-0.358l-1.972-4.965c-0.121-0.285-0.182-0.493-0.182-0.622
					c0-0.137,0.036-0.264,0.106-0.381c0.071-0.118,0.167-0.212,0.29-0.282c0.123-0.071,0.252-0.106,0.385-0.106
					c0.23,0,0.405,0.074,0.523,0.22c0.118,0.147,0.221,0.357,0.311,0.631l1.356,3.944l1.285-3.668
					c0.101-0.296,0.193-0.53,0.276-0.698c0.082-0.168,0.169-0.282,0.261-0.34c0.092-0.059,0.222-0.089,0.391-0.089
					c0.122,0,0.238,0.032,0.349,0.097c0.111,0.065,0.197,0.151,0.258,0.261c0.06,0.109,0.092,0.225,0.092,0.346
					c-0.016,0.074-0.041,0.18-0.077,0.318c-0.036,0.136-0.078,0.276-0.129,0.416l-2.089,5.47c-0.18,0.481-0.356,0.858-0.529,1.132
					c-0.172,0.274-0.4,0.485-0.684,0.631c-0.284,0.147-0.666,0.22-1.147,0.22c-0.469,0-0.822-0.051-1.056-0.152
					c-0.236-0.103-0.352-0.288-0.352-0.558c0-0.183,0.055-0.326,0.168-0.425c0.111-0.1,0.277-0.15,0.495-0.15
					c0.086,0,0.171,0.012,0.253,0.036c0.102,0.023,0.189,0.035,0.264,0.035c0.184,0,0.329-0.027,0.435-0.083
					c0.105-0.054,0.2-0.149,0.285-0.285C236.903,482.861,237,482.662,237.11,482.4z"/>
			</g>
			<g id="XMLID_524_">
				<g id="XMLID_539_">
					<path id="XMLID_560_" style="fill:#FFFFFF;" d="M260.321,475.824h0.382v-0.481c0-0.503,0.062-0.9,0.189-1.197
						c0.126-0.296,0.343-0.51,0.647-0.646c0.303-0.134,0.719-0.202,1.246-0.202c0.939,0,1.404,0.227,1.404,0.689
						c0,0.147-0.049,0.275-0.148,0.38c-0.095,0.104-0.212,0.158-0.345,0.158c-0.062,0-0.172-0.012-0.326-0.037
						c-0.147-0.021-0.279-0.034-0.385-0.034c-0.289,0-0.474,0.087-0.559,0.256c-0.078,0.17-0.121,0.413-0.121,0.732v0.381h0.391
						c0.612,0,0.915,0.183,0.915,0.553c0,0.259-0.078,0.427-0.243,0.497c-0.162,0.071-0.386,0.106-0.673,0.106h-0.391v4.246
						c0,0.316-0.074,0.556-0.228,0.722c-0.149,0.168-0.342,0.251-0.582,0.251c-0.227,0-0.415-0.083-0.567-0.251
						c-0.151-0.165-0.225-0.406-0.225-0.722v-4.246h-0.441c-0.24,0-0.422-0.052-0.552-0.162c-0.129-0.106-0.194-0.247-0.194-0.419
						C259.516,476.014,259.784,475.824,260.321,475.824"/>
					<path id="XMLID_559_" style="fill:#FFFFFF;" d="M265.567,479.887v1.34c0,0.324-0.082,0.568-0.231,0.729
						c-0.153,0.164-0.345,0.244-0.579,0.244c-0.236,0-0.425-0.081-0.573-0.247c-0.146-0.163-0.223-0.406-0.223-0.725v-4.463
						c0-0.721,0.26-1.081,0.779-1.081c0.268,0,0.459,0.083,0.577,0.252c0.117,0.169,0.182,0.416,0.196,0.746
						c0.19-0.33,0.386-0.577,0.586-0.746c0.205-0.169,0.471-0.252,0.809-0.252c0.339,0,0.663,0.083,0.979,0.252
						c0.319,0.169,0.477,0.393,0.477,0.67c0,0.194-0.068,0.358-0.202,0.483c-0.136,0.129-0.281,0.193-0.436,0.193
						c-0.061,0-0.204-0.039-0.428-0.111c-0.226-0.07-0.425-0.107-0.595-0.107c-0.235,0-0.428,0.063-0.576,0.184
						c-0.15,0.127-0.266,0.307-0.349,0.548c-0.08,0.244-0.135,0.535-0.168,0.868C265.581,478.997,265.567,479.406,265.567,479.887"
						/>
					<path id="XMLID_556_" style="fill:#FFFFFF;" d="M272.934,479.335h-3.135c0.005,0.363,0.077,0.686,0.219,0.963
						c0.145,0.276,0.334,0.486,0.571,0.628c0.238,0.141,0.497,0.21,0.784,0.21c0.192,0,0.366-0.021,0.525-0.069
						c0.157-0.043,0.312-0.115,0.461-0.211c0.15-0.094,0.284-0.197,0.41-0.309c0.125-0.108,0.288-0.257,0.488-0.444
						c0.083-0.07,0.2-0.107,0.351-0.107c0.166,0,0.297,0.046,0.401,0.137c0.102,0.091,0.15,0.217,0.15,0.381
						c0,0.145-0.055,0.314-0.165,0.506c-0.116,0.196-0.286,0.381-0.517,0.56c-0.231,0.176-0.518,0.326-0.864,0.441
						c-0.346,0.118-0.745,0.177-1.194,0.177c-1.033,0-1.832-0.292-2.402-0.879c-0.571-0.588-0.86-1.385-0.86-2.39
						c0-0.474,0.072-0.914,0.215-1.319c0.139-0.407,0.345-0.751,0.617-1.043c0.269-0.291,0.599-0.512,0.996-0.666
						c0.394-0.154,0.832-0.231,1.315-0.231c0.625,0,1.162,0.132,1.611,0.399c0.447,0.261,0.787,0.604,1.007,1.022
						c0.223,0.421,0.335,0.845,0.335,1.282c0,0.401-0.117,0.661-0.347,0.782C273.676,479.275,273.352,479.335,272.934,479.335
						 M269.798,478.424h2.905c-0.039-0.547-0.184-0.958-0.441-1.227c-0.258-0.273-0.593-0.408-1.014-0.408
						c-0.399,0-0.727,0.136-0.984,0.413C270.009,477.478,269.852,477.884,269.798,478.424"/>
					<path id="XMLID_553_" style="fill:#FFFFFF;" d="M279.599,479.335h-3.135c0.004,0.363,0.077,0.686,0.219,0.963
						c0.143,0.276,0.333,0.486,0.569,0.628c0.236,0.141,0.498,0.21,0.786,0.21c0.19,0,0.366-0.021,0.522-0.069
						c0.16-0.043,0.313-0.115,0.463-0.211c0.15-0.094,0.284-0.197,0.41-0.309c0.123-0.108,0.287-0.257,0.487-0.444
						c0.083-0.07,0.202-0.107,0.351-0.107c0.166,0,0.299,0.046,0.402,0.137c0.102,0.091,0.148,0.217,0.148,0.381
						c0,0.145-0.054,0.314-0.169,0.506c-0.109,0.196-0.281,0.381-0.513,0.56c-0.229,0.176-0.519,0.326-0.862,0.441
						c-0.345,0.118-0.746,0.177-1.195,0.177c-1.03,0-1.828-0.292-2.402-0.879c-0.571-0.588-0.858-1.385-0.858-2.39
						c0-0.474,0.072-0.914,0.215-1.319c0.14-0.407,0.345-0.751,0.615-1.043c0.269-0.291,0.601-0.512,0.997-0.666
						c0.394-0.154,0.835-0.231,1.316-0.231c0.623,0,1.16,0.132,1.615,0.399c0.445,0.261,0.782,0.604,1.002,1.022
						c0.222,0.421,0.337,0.845,0.337,1.282c0,0.401-0.118,0.661-0.347,0.782C280.341,479.275,280.017,479.335,279.599,479.335
						 M276.464,478.424h2.905c-0.039-0.547-0.188-0.958-0.442-1.227c-0.26-0.273-0.594-0.408-1.015-0.408
						c-0.399,0-0.727,0.136-0.984,0.413C276.673,477.478,276.516,477.884,276.464,478.424"/>
					<path id="XMLID_550_" style="fill:#FFFFFF;" d="M283.109,476.584v0.192c0.3-0.371,0.614-0.644,0.942-0.818
						c0.32-0.176,0.691-0.264,1.101-0.264c0.491,0,0.949,0.129,1.364,0.381c0.415,0.256,0.74,0.628,0.982,1.116
						c0.241,0.491,0.362,1.069,0.362,1.739c0,0.492-0.069,0.946-0.208,1.36c-0.138,0.413-0.332,0.758-0.574,1.038
						c-0.243,0.278-0.529,0.495-0.859,0.646c-0.335,0.149-0.687,0.224-1.068,0.224c-0.456,0-0.843-0.092-1.152-0.276
						c-0.311-0.18-0.607-0.453-0.891-0.807v2.405c0,0.702-0.257,1.057-0.769,1.057c-0.303,0-0.5-0.091-0.6-0.272
						c-0.094-0.185-0.144-0.447-0.144-0.798v-6.917c0-0.306,0.066-0.531,0.198-0.684c0.133-0.148,0.316-0.225,0.547-0.225
						c0.228,0,0.411,0.077,0.553,0.231C283.039,476.07,283.109,476.291,283.109,476.584 M286.251,478.912
						c0-0.423-0.066-0.787-0.194-1.089c-0.129-0.304-0.308-0.536-0.535-0.697c-0.227-0.162-0.483-0.245-0.762-0.245
						c-0.441,0-0.815,0.176-1.118,0.521c-0.304,0.35-0.457,0.862-0.457,1.541c0,0.634,0.151,1.133,0.454,1.487
						c0.301,0.354,0.671,0.53,1.12,0.53c0.265,0,0.513-0.078,0.74-0.23c0.229-0.156,0.411-0.387,0.546-0.696
						C286.182,479.724,286.251,479.349,286.251,478.912"/>
					<path id="XMLID_547_" style="fill:#FFFFFF;" d="M289.474,474.936c-0.224,0-0.413-0.071-0.57-0.207
						c-0.16-0.138-0.24-0.329-0.24-0.579c0-0.227,0.081-0.414,0.245-0.562c0.162-0.145,0.35-0.22,0.565-0.22
						c0.21,0,0.393,0.066,0.552,0.197c0.161,0.135,0.241,0.33,0.241,0.585c0,0.247-0.079,0.439-0.234,0.578
						C289.877,474.866,289.691,474.936,289.474,474.936 M290.267,476.592v4.636c0,0.319-0.077,0.561-0.229,0.724
						c-0.154,0.167-0.346,0.247-0.582,0.247s-0.423-0.083-0.573-0.251c-0.144-0.171-0.22-0.411-0.22-0.72v-4.59
						c0-0.315,0.075-0.553,0.22-0.713c0.15-0.164,0.338-0.242,0.573-0.242s0.427,0.078,0.582,0.242
						C290.191,476.085,290.267,476.309,290.267,476.592"/>
					<g id="XMLID_546_">
						<path style="fill:#FFFFFF;" d="M295.433,481.468l-1.411-2.327l-0.87,0.821v1.276c0,0.308-0.082,0.545-0.245,0.71
							c-0.159,0.168-0.35,0.251-0.56,0.251c-0.246,0-0.442-0.081-0.581-0.247c-0.14-0.163-0.212-0.406-0.212-0.725v-6.836
							c0-0.354,0.071-0.625,0.205-0.812c0.138-0.188,0.337-0.279,0.589-0.279c0.247,0,0.44,0.085,0.587,0.254
							c0.145,0.167,0.219,0.416,0.219,0.743v3.889l1.802-1.892c0.224-0.232,0.391-0.396,0.511-0.481
							c0.117-0.086,0.259-0.129,0.426-0.129c0.202,0,0.367,0.064,0.504,0.191c0.13,0.127,0.198,0.288,0.198,0.478
							c0,0.234-0.218,0.549-0.652,0.94l-0.851,0.78l1.643,2.585c0.119,0.194,0.209,0.336,0.262,0.436
							c0.052,0.098,0.08,0.197,0.08,0.286c0,0.255-0.071,0.454-0.211,0.603c-0.139,0.146-0.324,0.219-0.547,0.219
							c-0.196,0-0.348-0.05-0.453-0.158C295.759,481.934,295.612,481.742,295.433,481.468"/>
					</g>
					<path id="XMLID_545_" style="fill:#FFFFFF;" d="M298.915,482.199c-0.242,0-0.449-0.078-0.626-0.235
						c-0.176-0.154-0.265-0.374-0.265-0.658c0-0.238,0.085-0.444,0.254-0.615c0.17-0.173,0.375-0.259,0.623-0.259
						c0.245,0,0.454,0.086,0.632,0.255c0.173,0.17,0.261,0.378,0.261,0.619c0,0.279-0.088,0.499-0.261,0.655
						C299.355,482.121,299.149,482.199,298.915,482.199"/>
					<path id="XMLID_544_" style="fill:#FFFFFF;" d="M306.886,480.216c0,0.198-0.06,0.413-0.18,0.639
						c-0.118,0.229-0.302,0.443-0.547,0.649c-0.244,0.205-0.551,0.372-0.924,0.497c-0.371,0.125-0.791,0.189-1.255,0.189
						c-0.993,0-1.766-0.29-2.322-0.866c-0.553-0.578-0.832-1.353-0.832-2.323c0-0.66,0.126-1.24,0.383-1.745
						c0.252-0.503,0.62-0.894,1.101-1.17c0.482-0.277,1.06-0.414,1.726-0.414c0.416,0,0.796,0.06,1.145,0.182
						c0.346,0.121,0.638,0.279,0.88,0.469c0.239,0.194,0.424,0.398,0.55,0.613c0.128,0.217,0.19,0.421,0.19,0.61
						c0,0.19-0.07,0.353-0.212,0.486c-0.145,0.133-0.319,0.2-0.518,0.2c-0.135,0-0.246-0.035-0.334-0.103
						c-0.089-0.069-0.188-0.179-0.296-0.335c-0.196-0.296-0.4-0.52-0.616-0.667c-0.212-0.15-0.482-0.224-0.812-0.224
						c-0.471,0-0.855,0.184-1.145,0.555c-0.289,0.368-0.435,0.877-0.435,1.516c0,0.302,0.039,0.581,0.113,0.833
						c0.072,0.252,0.18,0.467,0.322,0.645c0.142,0.177,0.311,0.312,0.51,0.404c0.2,0.095,0.421,0.139,0.657,0.139
						c0.322,0,0.598-0.074,0.826-0.223c0.232-0.149,0.434-0.375,0.609-0.681c0.098-0.18,0.202-0.32,0.314-0.422
						c0.113-0.101,0.253-0.154,0.418-0.154c0.196,0,0.358,0.076,0.486,0.224C306.82,479.888,306.886,480.048,306.886,480.216"/>
					<path id="XMLID_541_" style="fill:#FFFFFF;" d="M313.801,478.942c0,0.475-0.076,0.917-0.22,1.322
						c-0.153,0.403-0.366,0.75-0.649,1.037c-0.281,0.29-0.619,0.512-1.008,0.667c-0.395,0.153-0.834,0.232-1.322,0.232
						c-0.485,0-0.923-0.079-1.311-0.237c-0.385-0.154-0.724-0.38-1.005-0.669c-0.285-0.294-0.5-0.639-0.65-1.036
						c-0.142-0.398-0.217-0.837-0.217-1.317c0-0.486,0.077-0.931,0.221-1.334c0.15-0.404,0.364-0.749,0.642-1.034
						c0.279-0.285,0.614-0.505,1.008-0.661c0.398-0.154,0.834-0.231,1.311-0.231c0.485,0,0.926,0.077,1.322,0.236
						c0.394,0.155,0.731,0.38,1.016,0.667c0.283,0.293,0.496,0.636,0.643,1.033C313.727,478.021,313.801,478.459,313.801,478.942
						 M312.192,478.942c0-0.654-0.145-1.162-0.431-1.526c-0.286-0.368-0.673-0.548-1.158-0.548c-0.314,0-0.59,0.081-0.83,0.243
						c-0.239,0.162-0.421,0.401-0.55,0.719c-0.129,0.318-0.195,0.688-0.195,1.112c0,0.419,0.063,0.783,0.191,1.096
						c0.128,0.316,0.31,0.555,0.547,0.721c0.238,0.165,0.516,0.25,0.836,0.25c0.485,0,0.872-0.183,1.158-0.551
						C312.047,480.092,312.192,479.586,312.192,478.942"/>
					<path id="XMLID_540_" style="fill:#FFFFFF;" d="M319.913,479.06v2.13c0,0.338-0.074,0.588-0.228,0.758
						c-0.155,0.168-0.353,0.252-0.604,0.252c-0.243,0-0.441-0.084-0.588-0.252c-0.153-0.171-0.23-0.421-0.23-0.758v-2.553
						c0-0.404-0.013-0.718-0.039-0.942c-0.028-0.218-0.104-0.405-0.224-0.545c-0.121-0.146-0.314-0.217-0.575-0.217
						c-0.526,0-0.87,0.179-1.036,0.544c-0.165,0.356-0.251,0.873-0.251,1.549v2.164c0,0.332-0.075,0.585-0.223,0.756
						c-0.154,0.169-0.351,0.255-0.596,0.255c-0.244,0-0.443-0.086-0.597-0.255c-0.156-0.171-0.232-0.424-0.232-0.756v-4.585
						c0-0.302,0.069-0.532,0.207-0.687c0.142-0.159,0.325-0.236,0.55-0.236c0.22,0,0.402,0.076,0.551,0.22
						c0.146,0.147,0.219,0.35,0.219,0.608v0.151c0.28-0.331,0.578-0.576,0.893-0.73c0.319-0.16,0.669-0.238,1.059-0.238
						c0.402,0,0.748,0.081,1.037,0.241c0.29,0.161,0.527,0.405,0.717,0.727c0.272-0.327,0.562-0.57,0.871-0.73
						c0.309-0.159,0.65-0.238,1.027-0.238c0.436,0,0.816,0.088,1.133,0.259c0.315,0.172,0.551,0.42,0.709,0.739
						c0.136,0.292,0.204,0.748,0.204,1.37v3.128c0,0.338-0.075,0.588-0.227,0.758c-0.152,0.168-0.355,0.252-0.605,0.252
						c-0.244,0-0.441-0.086-0.596-0.255c-0.155-0.171-0.232-0.424-0.232-0.756v-2.695c0-0.345-0.014-0.62-0.043-0.827
						c-0.029-0.208-0.109-0.383-0.236-0.523c-0.131-0.141-0.328-0.212-0.589-0.212c-0.211,0-0.411,0.066-0.602,0.19
						c-0.189,0.122-0.338,0.294-0.445,0.502C319.974,477.895,319.913,478.374,319.913,479.06"/>
				</g>
				<g id="XMLID_525_">
					<path id="XMLID_538_" style="fill:#FFFFFF;" d="M245.325,478.554c-0.001-0.003-0.001-0.006-0.001-0.011
						C245.324,478.548,245.324,478.551,245.325,478.554z"/>
					<path id="XMLID_537_" style="fill:#FFFFFF;" d="M245.406,479.066c0.001,0,0.001,0,0.002,0
						c-0.031-0.146-0.055-0.291-0.073-0.434C245.353,478.777,245.377,478.922,245.406,479.066z"/>
					<path id="XMLID_536_" style="fill:#FFFFFF;" d="M245.937,480.553c-0.004-0.006-0.007-0.013-0.011-0.021
						C245.93,480.54,245.933,480.547,245.937,480.553z"/>
					<path id="XMLID_535_" style="fill:#FFFFFF;" d="M245.886,480.454c-0.014-0.027-0.027-0.056-0.04-0.083
						C245.859,480.401,245.872,480.427,245.886,480.454z"/>
					<path id="XMLID_534_" style="fill:#FFFFFF;" d="M245.555,479.639c0.079,0.247,0.173,0.487,0.283,0.716
						c-0.111-0.233-0.204-0.474-0.28-0.716C245.557,479.639,245.556,479.639,245.555,479.639z"/>
					<path id="XMLID_533_" style="fill:#FFFFFF;" d="M251.528,472.414c0.31,0,0.538,0.025,0.8,0.069l0.074-0.471
						c0,0-0.723-0.223-1.675-0.145l-0.075-0.257c0.296-0.062,0.518-0.325,0.518-0.639c0-0.36-0.293-0.651-0.653-0.651
						c-0.36,0-0.652,0.291-0.652,0.651c0,0.314,0.221,0.577,0.517,0.639l0.083,0.286c-1.01,0.139-1.814,0.533-1.814,0.533
						l0.143,0.436c0.611-0.203,1.141-0.327,1.621-0.379C250.885,472.436,251.239,472.414,251.528,472.414z"/>
					<path id="XMLID_532_" style="fill:#FFFFFF;" d="M245.925,474.798l0.004-0.005c0.024-0.031,0.047-0.06,0.07-0.088l-0.193-0.139
						l-0.301-0.22c-0.017,0.024-0.491,0.46-0.866,1.265c-0.016-0.025-0.034-0.05-0.055-0.074c-0.112-0.122-0.269-0.185-0.469-0.182
						c-0.003,0-0.006,0-0.009,0c-0.123,0-0.208-0.041-0.264-0.091c0.055-0.07,0.088-0.158,0.088-0.255
						c0-0.227-0.185-0.413-0.414-0.413c-0.228,0-0.413,0.186-0.413,0.413c0,0.229,0.185,0.413,0.413,0.413
						c0.036,0,0.07-0.006,0.103-0.013c0.102,0.113,0.263,0.211,0.499,0.206c0.122-0.001,0.211,0.03,0.27,0.096
						c0.068,0.075,0.092,0.183,0.099,0.264c-0.001,0.001-0.001,0.003-0.002,0.003c-0.269,0.735-0.192,1.65-0.192,1.65l0.653,0.026
						c0.013-0.333,0.061-0.916,0.23-1.378C245.501,475.382,245.908,474.822,245.925,474.798z"/>
					<path id="XMLID_531_" style="fill:#FFFFFF;" d="M257.212,472.96c-0.228,0-0.413,0.185-0.413,0.413
						c0,0.036,0.005,0.069,0.014,0.102c-0.113,0.103-0.212,0.264-0.208,0.501c0.002,0.122-0.03,0.21-0.095,0.27
						c-0.053,0.047-0.118,0.071-0.183,0.087c-0.486-0.681-1.085-1.097-1.085-1.097l-0.469,0.503c0.354,0.322,0.716,0.726,1.068,1.23
						c0.243,0.348,0.494,0.797,0.702,1.245l0.633-0.301c0,0-0.289-0.714-0.696-1.354c0.071-0.025,0.142-0.063,0.205-0.119
						c0.124-0.112,0.185-0.27,0.181-0.468c-0.001-0.129,0.041-0.215,0.092-0.273c0.071,0.054,0.159,0.088,0.255,0.088
						c0.229,0,0.414-0.185,0.414-0.413C257.626,473.145,257.442,472.96,257.212,472.96z"/>
					<path id="XMLID_530_" style="fill:#FFFFFF;" d="M255.57,478.647c-0.871,0.424-2.304,0.985-4.19,1.248
						c-0.74,0.103-1.458,0.141-2.118,0.141c-0.859,0-1.619-0.064-2.201-0.138c-0.665-0.084-1.185-0.186-1.503-0.258
						c0.076,0.242,0.169,0.482,0.28,0.716c0.002,0.006,0.005,0.013,0.008,0.017c0.013,0.027,0.027,0.056,0.04,0.083
						c0.013,0.027,0.027,0.054,0.04,0.078c0.004,0.007,0.007,0.014,0.011,0.021c0.187,0.352,0.412,0.676,0.668,0.957
						c0.89,0.973,1.796,1.127,1.805,1.129l0.014,0.002l0.013,0.005c0.008,0.003,0.812,0.263,2.034,0.263
						c1.202,0,2.382-0.243,3.506-0.721c0.833-0.426,1.62-1.073,2.011-1.65c0.302-0.447,0.52-0.923,0.649-1.418
						c0.069-0.263,0.123-0.684,0.091-1.128C256.482,478.156,256.095,478.391,255.57,478.647z"/>
					<path id="XMLID_526_" style="fill:#FFFFFF;" d="M246.204,475.005c-0.025,0.037-0.403,0.572-0.702,1.392
						c-0.223,0.615-0.214,1.51-0.214,1.52v0.002c0,0.21,0.012,0.418,0.035,0.625c0,0.005,0,0.008,0.001,0.011
						c0.003,0.027,0.007,0.052,0.009,0.078c0.019,0.143,0.043,0.288,0.073,0.434c0.433,0.11,3.015,0.712,5.9,0.31
						c1.809-0.252,3.182-0.786,4.016-1.191c0.693-0.336,1.138-0.64,1.31-0.765c-0.171-0.635-0.644-1.632-1.077-2.253
						c-1.239-1.771-2.575-2.225-3.261-2.338c-0.262-0.043-0.471-0.068-0.768-0.068c-0.276,0-0.619,0.022-1.077,0.07
						c-0.459,0.048-0.971,0.168-1.565,0.368c-0.833,0.279-1.587,0.716-2.179,1.266l-0.02,0.019
						C246.599,474.566,246.415,474.736,246.204,475.005z M253.786,474.592c0.594,0,1.077,0.483,1.077,1.077
						c0,0.594-0.483,1.078-1.077,1.078c-0.594,0-1.077-0.483-1.077-1.078C252.709,475.075,253.192,474.592,253.786,474.592z
						 M248.693,474.55c0.962,0,1.741,0.78,1.741,1.741c0,0.961-0.779,1.739-1.741,1.739c-0.961,0-1.74-0.778-1.74-1.739
						C246.953,475.329,247.732,474.55,248.693,474.55z"/>
				</g>
			</g>
		</g>
	</g>
</g>
</svg>
